M48
; DRILL file {KiCad 8.0.4} date 2024-09-11T16:35:02-0700
; FORMAT={-:-/ absolute / inch / decimal}
; #@! TF.CreationDate,2024-09-11T16:35:02-07:00
; #@! TF.GenerationSoftware,Kicad,Pcbnew,8.0.4
; #@! TF.FileFunction,Plated,1,2,PTH
FMAT,2
INCH
; #@! TA.AperFunction,Plated,PTH,ComponentDrill
T1C0.0079
; #@! TA.AperFunction,Plated,PTH,ViaDrill
T2C0.0236
; #@! TA.AperFunction,Plated,PTH,ComponentDrill
T3C0.0394
%
G90
G05
T1
X4.6387Y-2.503
X4.6387Y-2.5856
X4.7213Y-2.503
X4.7213Y-2.5856
T2
X4.378Y-2.3346
X4.3819Y-2.2244
X4.3858Y-1.8504
X4.3858Y-1.9213
X4.3858Y-2.0118
X4.3858Y-2.1142
X4.4173Y-2.2913
X4.4449Y-2.1772
X4.4488Y-2.3346
X4.4528Y-2.1063
X4.4606Y-2.2323
X4.4685Y-1.9331
X4.4724Y-1.8504
X4.4764Y-2.0236
X4.4961Y-2.3071
X4.5157Y-2.1614
X4.5157Y-2.2677
X4.5197Y-2.0906
X4.5354Y-2.3465
X4.5354Y-2.6299
X4.5394Y-1.8583
X4.5512Y-2.0039
X4.5591Y-1.9134
X4.5591Y-2.2677
X4.5748Y-2.3425
X4.5748Y-2.3819
X4.5787Y-2.0787
X4.5787Y-2.1929
X4.6063Y-1.8425
X4.6063Y-1.8819
X4.6063Y-2.2677
X4.6102Y-2.2323
X4.6102Y-2.3819
X4.6142Y-1.9213
X4.6142Y-1.9606
X4.6142Y-2.0
X4.6142Y-2.0394
X4.6142Y-2.1142
X4.6142Y-2.1535
X4.6142Y-2.6772
X4.6969Y-1.8465
X4.6969Y-1.8858
X4.6969Y-1.9252
X4.6969Y-1.9685
X4.6969Y-2.0079
X4.6969Y-2.0512
X4.6969Y-2.0945
X4.6969Y-2.1339
X4.6969Y-2.1811
X4.7087Y-2.2283
X4.7283Y-2.3079
X4.7283Y-2.6772
X4.7559Y-2.4685
X4.7598Y-1.8976
X4.7598Y-1.9606
X4.7598Y-2.0236
X4.7598Y-2.0906
X4.7598Y-2.1575
X4.7677Y-2.2205
X4.7677Y-2.4213
X4.7835Y-1.8465
X4.8031Y-2.2677
X4.8071Y-2.374
X4.811Y-2.3228
X4.8268Y-1.8976
X4.8268Y-2.0236
X4.8386Y-2.1614
X4.8425Y-2.4173
X4.8583Y-2.2953
X4.8583Y-2.3543
X4.8858Y-2.2323
X4.8898Y-2.0866
X4.8937Y-1.8504
X4.8937Y-1.9409
X4.9016Y-2.4134
X4.9055Y-2.3228
T3
X4.4205Y-2.6734
X4.4205Y-2.7734
X4.4209Y-2.4301
X4.4209Y-2.5301
X4.563Y-2.7732
X4.663Y-2.7732
X4.763Y-2.7732
X4.863Y-2.7732
M30
