%TF.GenerationSoftware,KiCad,Pcbnew,8.0.4*%
%TF.CreationDate,2024-09-11T18:08:33-07:00*%
%TF.ProjectId,rf-frontend-test,72662d66-726f-46e7-9465-6e642d746573,rev?*%
%TF.SameCoordinates,Original*%
%TF.FileFunction,Copper,L2,Bot*%
%TF.FilePolarity,Positive*%
%FSLAX46Y46*%
G04 Gerber Fmt 4.6, Leading zero omitted, Abs format (unit mm)*
G04 Created by KiCad (PCBNEW 8.0.4) date 2024-09-11 18:08:33*
%MOMM*%
%LPD*%
G01*
G04 APERTURE LIST*
%TA.AperFunction,ComponentPad*%
%ADD10R,1.700000X1.700000*%
%TD*%
%TA.AperFunction,ComponentPad*%
%ADD11O,1.700000X1.700000*%
%TD*%
%TA.AperFunction,HeatsinkPad*%
%ADD12C,0.500000*%
%TD*%
%TA.AperFunction,HeatsinkPad*%
%ADD13R,2.600000X2.600000*%
%TD*%
%TA.AperFunction,ViaPad*%
%ADD14C,0.800000*%
%TD*%
%TA.AperFunction,Conductor*%
%ADD15C,0.250000*%
%TD*%
G04 APERTURE END LIST*
D10*
%TO.P,J1,1,Pin_1*%
%TO.N,~{RF_IRQ}*%
X112280000Y-70445000D03*
D11*
%TO.P,J1,2,Pin_2*%
%TO.N,~{RF_EN}*%
X112280000Y-67905000D03*
%TD*%
D12*
%TO.P,U1,21,GND*%
%TO.N,GND*%
X119922000Y-63575000D03*
X117822000Y-63575000D03*
D13*
X118872000Y-64625000D03*
D12*
X119922000Y-65675000D03*
X117822000Y-65675000D03*
%TD*%
D11*
%TO.P,J2,4,Pin_4*%
%TO.N,SCLK*%
X115900000Y-70440000D03*
%TO.P,J2,3,Pin_3*%
%TO.N,MISO*%
X118440000Y-70440000D03*
%TO.P,J2,2,Pin_2*%
%TO.N,MOSI*%
X120980000Y-70440000D03*
D10*
%TO.P,J2,1,Pin_1*%
%TO.N,~{RF_CS}*%
X123520000Y-70440000D03*
%TD*%
%TO.P,J3,1,Pin_1*%
%TO.N,GND*%
X112290000Y-64265000D03*
D11*
%TO.P,J3,2,Pin_2*%
%TO.N,+3.3V*%
X112290000Y-61725000D03*
%TD*%
D14*
%TO.N,GND*%
X113300000Y-56700000D03*
X112900000Y-55300000D03*
X114700000Y-54900000D03*
X114800000Y-53100000D03*
X113100000Y-53500000D03*
X115600000Y-50900000D03*
X113700000Y-51400000D03*
X113500000Y-49100000D03*
X115800000Y-48600000D03*
X115300000Y-47200000D03*
X113600000Y-47000000D03*
X111400000Y-47000000D03*
X111400000Y-48800000D03*
X111400000Y-51100000D03*
X111400000Y-53700000D03*
X111300000Y-56500000D03*
X112200000Y-58200000D03*
X111200000Y-59300000D03*
X113000000Y-59300000D03*
X117000000Y-46800000D03*
X117000000Y-47800000D03*
X117200000Y-48800000D03*
X117200000Y-49800000D03*
X117200000Y-50800000D03*
X117200000Y-51800000D03*
X116300000Y-52800000D03*
X117200000Y-53700000D03*
X117200000Y-54700000D03*
X116300000Y-55700000D03*
X117100000Y-56700000D03*
X117000000Y-57600000D03*
X115800000Y-57600000D03*
X114700000Y-57600000D03*
X114200000Y-58600000D03*
X115200000Y-59600000D03*
X116200000Y-60500000D03*
X116200000Y-59500000D03*
X117100000Y-60500000D03*
X117200000Y-68000000D03*
X120100000Y-68000000D03*
X115200000Y-66800000D03*
X124600000Y-59000000D03*
X124100000Y-56700000D03*
X122900000Y-54900000D03*
X124200000Y-53000000D03*
X122600000Y-51400000D03*
X124300000Y-49300000D03*
X124300000Y-47000000D03*
X122600000Y-48200000D03*
X121500000Y-46900000D03*
X120900000Y-48200000D03*
X120900000Y-49800000D03*
X120900000Y-51400000D03*
X120900000Y-53100000D03*
X120900000Y-54800000D03*
X119300000Y-46900000D03*
X119300000Y-47900000D03*
X119300000Y-48900000D03*
X119300000Y-50000000D03*
X119300000Y-51000000D03*
X119300000Y-52100000D03*
X119300000Y-53200000D03*
X119300000Y-54200000D03*
X119300000Y-55400000D03*
X119600000Y-56600000D03*
X121100000Y-56400000D03*
X122000000Y-57600000D03*
X122200000Y-59000000D03*
X123400000Y-59800000D03*
X124500000Y-61300000D03*
X123400000Y-58300000D03*
X122100000Y-60300000D03*
X123000000Y-61400000D03*
X121100000Y-61500000D03*
X120100000Y-58620000D03*
%TO.N,~{RF_EN}*%
X120800000Y-62700000D03*
%TD*%
D15*
%TO.N,~{RF_EN}*%
X120800000Y-62700000D02*
X117485000Y-62700000D01*
X117485000Y-62700000D02*
X112280000Y-67905000D01*
%TD*%
%TA.AperFunction,Conductor*%
%TO.N,GND*%
G36*
X124842539Y-46420185D02*
G01*
X124888294Y-46472989D01*
X124899500Y-46524500D01*
X124899500Y-69113456D01*
X124879815Y-69180495D01*
X124827011Y-69226250D01*
X124757853Y-69236194D01*
X124701189Y-69212723D01*
X124687346Y-69202360D01*
X124612331Y-69146204D01*
X124612329Y-69146203D01*
X124612328Y-69146202D01*
X124477482Y-69095908D01*
X124477483Y-69095908D01*
X124417883Y-69089501D01*
X124417881Y-69089500D01*
X124417873Y-69089500D01*
X124417864Y-69089500D01*
X122622129Y-69089500D01*
X122622123Y-69089501D01*
X122562516Y-69095908D01*
X122427671Y-69146202D01*
X122427664Y-69146206D01*
X122312455Y-69232452D01*
X122312452Y-69232455D01*
X122226206Y-69347664D01*
X122226203Y-69347669D01*
X122177189Y-69479083D01*
X122135317Y-69535016D01*
X122069853Y-69559433D01*
X122001580Y-69544581D01*
X121973326Y-69523430D01*
X121851402Y-69401506D01*
X121851395Y-69401501D01*
X121657834Y-69265967D01*
X121657830Y-69265965D01*
X121593986Y-69236194D01*
X121443663Y-69166097D01*
X121443659Y-69166096D01*
X121443655Y-69166094D01*
X121215413Y-69104938D01*
X121215403Y-69104936D01*
X120980001Y-69084341D01*
X120979999Y-69084341D01*
X120744596Y-69104936D01*
X120744586Y-69104938D01*
X120516344Y-69166094D01*
X120516335Y-69166098D01*
X120302171Y-69265964D01*
X120302169Y-69265965D01*
X120108597Y-69401505D01*
X119941505Y-69568597D01*
X119811575Y-69754158D01*
X119756998Y-69797783D01*
X119687500Y-69804977D01*
X119625145Y-69773454D01*
X119608425Y-69754158D01*
X119478494Y-69568597D01*
X119311402Y-69401506D01*
X119311395Y-69401501D01*
X119117834Y-69265967D01*
X119117830Y-69265965D01*
X119053986Y-69236194D01*
X118903663Y-69166097D01*
X118903659Y-69166096D01*
X118903655Y-69166094D01*
X118675413Y-69104938D01*
X118675403Y-69104936D01*
X118440001Y-69084341D01*
X118439999Y-69084341D01*
X118204596Y-69104936D01*
X118204586Y-69104938D01*
X117976344Y-69166094D01*
X117976335Y-69166098D01*
X117762171Y-69265964D01*
X117762169Y-69265965D01*
X117568597Y-69401505D01*
X117401505Y-69568597D01*
X117271575Y-69754158D01*
X117216998Y-69797783D01*
X117147500Y-69804977D01*
X117085145Y-69773454D01*
X117068425Y-69754158D01*
X116938494Y-69568597D01*
X116771402Y-69401506D01*
X116771395Y-69401501D01*
X116577834Y-69265967D01*
X116577830Y-69265965D01*
X116513986Y-69236194D01*
X116363663Y-69166097D01*
X116363659Y-69166096D01*
X116363655Y-69166094D01*
X116135413Y-69104938D01*
X116135403Y-69104936D01*
X115900001Y-69084341D01*
X115899999Y-69084341D01*
X115664596Y-69104936D01*
X115664586Y-69104938D01*
X115436344Y-69166094D01*
X115436335Y-69166098D01*
X115222171Y-69265964D01*
X115222169Y-69265965D01*
X115028597Y-69401505D01*
X114861505Y-69568597D01*
X114725965Y-69762169D01*
X114725964Y-69762171D01*
X114626098Y-69976335D01*
X114626094Y-69976344D01*
X114564938Y-70204586D01*
X114564936Y-70204596D01*
X114544341Y-70439999D01*
X114544341Y-70440000D01*
X114564936Y-70675403D01*
X114564938Y-70675413D01*
X114626094Y-70903655D01*
X114626096Y-70903659D01*
X114626097Y-70903663D01*
X114630000Y-70912032D01*
X114725965Y-71117830D01*
X114725967Y-71117834D01*
X114834281Y-71272521D01*
X114861501Y-71311396D01*
X114861506Y-71311402D01*
X115028597Y-71478493D01*
X115028603Y-71478498D01*
X115164887Y-71573925D01*
X115208512Y-71628502D01*
X115215706Y-71698000D01*
X115184183Y-71760355D01*
X115123953Y-71795769D01*
X115093764Y-71799500D01*
X113625258Y-71799500D01*
X113558219Y-71779815D01*
X113512464Y-71727011D01*
X113502520Y-71657853D01*
X113525991Y-71601189D01*
X113573796Y-71537331D01*
X113624091Y-71402483D01*
X113630500Y-71342873D01*
X113630499Y-69547128D01*
X113624091Y-69487517D01*
X113620945Y-69479083D01*
X113573797Y-69352671D01*
X113573793Y-69352664D01*
X113487547Y-69237455D01*
X113487544Y-69237452D01*
X113372335Y-69151206D01*
X113372328Y-69151202D01*
X113240917Y-69102189D01*
X113184983Y-69060318D01*
X113160566Y-68994853D01*
X113175418Y-68926580D01*
X113196563Y-68898332D01*
X113318495Y-68776401D01*
X113454035Y-68582830D01*
X113553903Y-68368663D01*
X113615063Y-68140408D01*
X113635659Y-67905000D01*
X113615063Y-67669592D01*
X113588143Y-67569125D01*
X113589806Y-67499276D01*
X113620235Y-67449353D01*
X114714323Y-66355266D01*
X117495285Y-66355266D01*
X117654056Y-66410824D01*
X117821996Y-66429746D01*
X117822004Y-66429746D01*
X117989943Y-66410824D01*
X118148713Y-66355267D01*
X118148714Y-66355266D01*
X119595285Y-66355266D01*
X119754056Y-66410824D01*
X119921996Y-66429746D01*
X119922004Y-66429746D01*
X120089943Y-66410824D01*
X120248713Y-66355267D01*
X120248714Y-66355266D01*
X119922001Y-66028553D01*
X119922000Y-66028553D01*
X119595285Y-66355266D01*
X118148714Y-66355266D01*
X117822001Y-66028553D01*
X117822000Y-66028553D01*
X117495285Y-66355266D01*
X114714323Y-66355266D01*
X115394593Y-65674996D01*
X117067254Y-65674996D01*
X117067254Y-65675003D01*
X117086175Y-65842938D01*
X117086176Y-65842943D01*
X117141732Y-66001714D01*
X117468447Y-65675000D01*
X117448556Y-65655109D01*
X117722000Y-65655109D01*
X117722000Y-65694891D01*
X117737224Y-65731645D01*
X117765355Y-65759776D01*
X117802109Y-65775000D01*
X117841891Y-65775000D01*
X117878645Y-65759776D01*
X117906776Y-65731645D01*
X117922000Y-65694891D01*
X117922000Y-65674999D01*
X118175553Y-65674999D01*
X118175553Y-65675001D01*
X118502266Y-66001714D01*
X118502267Y-66001713D01*
X118557824Y-65842943D01*
X118576746Y-65675003D01*
X118576746Y-65674996D01*
X119167254Y-65674996D01*
X119167254Y-65675003D01*
X119186175Y-65842938D01*
X119186176Y-65842943D01*
X119241732Y-66001714D01*
X119568447Y-65675000D01*
X119548556Y-65655109D01*
X119822000Y-65655109D01*
X119822000Y-65694891D01*
X119837224Y-65731645D01*
X119865355Y-65759776D01*
X119902109Y-65775000D01*
X119941891Y-65775000D01*
X119978645Y-65759776D01*
X120006776Y-65731645D01*
X120022000Y-65694891D01*
X120022000Y-65674999D01*
X120275553Y-65674999D01*
X120275553Y-65675001D01*
X120602266Y-66001714D01*
X120602267Y-66001713D01*
X120657824Y-65842943D01*
X120676746Y-65675003D01*
X120676746Y-65674996D01*
X120657824Y-65507056D01*
X120602266Y-65348285D01*
X120275553Y-65674999D01*
X120022000Y-65674999D01*
X120022000Y-65655109D01*
X120006776Y-65618355D01*
X119978645Y-65590224D01*
X119941891Y-65575000D01*
X119902109Y-65575000D01*
X119865355Y-65590224D01*
X119837224Y-65618355D01*
X119822000Y-65655109D01*
X119548556Y-65655109D01*
X119241732Y-65348285D01*
X119186176Y-65507053D01*
X119186175Y-65507058D01*
X119167254Y-65674996D01*
X118576746Y-65674996D01*
X118557824Y-65507056D01*
X118502266Y-65348285D01*
X118175553Y-65674999D01*
X117922000Y-65674999D01*
X117922000Y-65655109D01*
X117906776Y-65618355D01*
X117878645Y-65590224D01*
X117841891Y-65575000D01*
X117802109Y-65575000D01*
X117765355Y-65590224D01*
X117737224Y-65618355D01*
X117722000Y-65655109D01*
X117448556Y-65655109D01*
X117141732Y-65348285D01*
X117086176Y-65507053D01*
X117086175Y-65507058D01*
X117067254Y-65674996D01*
X115394593Y-65674996D01*
X116074857Y-64994732D01*
X117495285Y-64994732D01*
X117822000Y-65321447D01*
X117822001Y-65321447D01*
X118148714Y-64994732D01*
X119595285Y-64994732D01*
X119922000Y-65321447D01*
X119922001Y-65321447D01*
X120248714Y-64994732D01*
X120089943Y-64939176D01*
X120089938Y-64939175D01*
X119922004Y-64920254D01*
X119921996Y-64920254D01*
X119754058Y-64939175D01*
X119754053Y-64939176D01*
X119595285Y-64994732D01*
X118148714Y-64994732D01*
X117989943Y-64939176D01*
X117989938Y-64939175D01*
X117822004Y-64920254D01*
X117821996Y-64920254D01*
X117654058Y-64939175D01*
X117654053Y-64939176D01*
X117495285Y-64994732D01*
X116074857Y-64994732D01*
X116814324Y-64255266D01*
X117495285Y-64255266D01*
X117654056Y-64310824D01*
X117821996Y-64329746D01*
X117822004Y-64329746D01*
X117989943Y-64310824D01*
X118148713Y-64255267D01*
X118148714Y-64255266D01*
X119595285Y-64255266D01*
X119754056Y-64310824D01*
X119921996Y-64329746D01*
X119922004Y-64329746D01*
X120089943Y-64310824D01*
X120248713Y-64255267D01*
X120248714Y-64255266D01*
X119922001Y-63928553D01*
X119922000Y-63928553D01*
X119595285Y-64255266D01*
X118148714Y-64255266D01*
X117822001Y-63928553D01*
X117822000Y-63928553D01*
X117495285Y-64255266D01*
X116814324Y-64255266D01*
X117514482Y-63555109D01*
X117722000Y-63555109D01*
X117722000Y-63594891D01*
X117737224Y-63631645D01*
X117765355Y-63659776D01*
X117802109Y-63675000D01*
X117841891Y-63675000D01*
X117878645Y-63659776D01*
X117906776Y-63631645D01*
X117922000Y-63594891D01*
X117922000Y-63555109D01*
X117906776Y-63518355D01*
X117878645Y-63490224D01*
X117841891Y-63475000D01*
X117802109Y-63475000D01*
X117765355Y-63490224D01*
X117737224Y-63518355D01*
X117722000Y-63555109D01*
X117514482Y-63555109D01*
X117707772Y-63361819D01*
X117769095Y-63328334D01*
X117795453Y-63325500D01*
X117874691Y-63325500D01*
X117941730Y-63345185D01*
X117962372Y-63361819D01*
X118502266Y-63901713D01*
X118502267Y-63901713D01*
X118557824Y-63742943D01*
X118576746Y-63575003D01*
X118576746Y-63574995D01*
X118564171Y-63463383D01*
X118576226Y-63394561D01*
X118623575Y-63343182D01*
X118687391Y-63325500D01*
X119056609Y-63325500D01*
X119123648Y-63345185D01*
X119169403Y-63397989D01*
X119179829Y-63463383D01*
X119167254Y-63574995D01*
X119167254Y-63575003D01*
X119186175Y-63742938D01*
X119186176Y-63742943D01*
X119241732Y-63901713D01*
X119588337Y-63555109D01*
X119822000Y-63555109D01*
X119822000Y-63594891D01*
X119837224Y-63631645D01*
X119865355Y-63659776D01*
X119902109Y-63675000D01*
X119941891Y-63675000D01*
X119978645Y-63659776D01*
X120006776Y-63631645D01*
X120022000Y-63594891D01*
X120022000Y-63555109D01*
X120006776Y-63518355D01*
X119978645Y-63490224D01*
X119941891Y-63475000D01*
X119902109Y-63475000D01*
X119865355Y-63490224D01*
X119837224Y-63518355D01*
X119822000Y-63555109D01*
X119588337Y-63555109D01*
X119781628Y-63361819D01*
X119842951Y-63328334D01*
X119869309Y-63325500D01*
X119974691Y-63325500D01*
X120041730Y-63345185D01*
X120062372Y-63361819D01*
X120602266Y-63901713D01*
X120602267Y-63901713D01*
X120657824Y-63742943D01*
X120661466Y-63710618D01*
X120688531Y-63646204D01*
X120746126Y-63606648D01*
X120784686Y-63600500D01*
X120894644Y-63600500D01*
X120894646Y-63600500D01*
X121079803Y-63561144D01*
X121252730Y-63484151D01*
X121405871Y-63372888D01*
X121532533Y-63232216D01*
X121627179Y-63068284D01*
X121685674Y-62888256D01*
X121705460Y-62700000D01*
X121685674Y-62511744D01*
X121627179Y-62331716D01*
X121532533Y-62167784D01*
X121405871Y-62027112D01*
X121405870Y-62027111D01*
X121252734Y-61915851D01*
X121252729Y-61915848D01*
X121079807Y-61838857D01*
X121079802Y-61838855D01*
X120934001Y-61807865D01*
X120894646Y-61799500D01*
X120705354Y-61799500D01*
X120672897Y-61806398D01*
X120520197Y-61838855D01*
X120520192Y-61838857D01*
X120347270Y-61915848D01*
X120347265Y-61915851D01*
X120194130Y-62027110D01*
X120194126Y-62027114D01*
X120188400Y-62033474D01*
X120128913Y-62070121D01*
X120096252Y-62074500D01*
X117552741Y-62074500D01*
X117552721Y-62074499D01*
X117546607Y-62074499D01*
X117423394Y-62074499D01*
X117322597Y-62094548D01*
X117322592Y-62094548D01*
X117302549Y-62098536D01*
X117302547Y-62098536D01*
X117255397Y-62118067D01*
X117188719Y-62145685D01*
X117188717Y-62145686D01*
X117086266Y-62214141D01*
X113737464Y-65562943D01*
X113676141Y-65596428D01*
X113614900Y-65592048D01*
X113623946Y-65633625D01*
X113599531Y-65699091D01*
X113587943Y-65712464D01*
X112735646Y-66564762D01*
X112674323Y-66598247D01*
X112615872Y-66596856D01*
X112515413Y-66569938D01*
X112515403Y-66569936D01*
X112280001Y-66549341D01*
X112279999Y-66549341D01*
X112044596Y-66569936D01*
X112044586Y-66569938D01*
X111816344Y-66631094D01*
X111816335Y-66631098D01*
X111602171Y-66730964D01*
X111602169Y-66730965D01*
X111408597Y-66866505D01*
X111241505Y-67033597D01*
X111126075Y-67198450D01*
X111071498Y-67242075D01*
X111002000Y-67249269D01*
X110939645Y-67217746D01*
X110904231Y-67157516D01*
X110900500Y-67127327D01*
X110900500Y-65583433D01*
X110920185Y-65516394D01*
X110972989Y-65470639D01*
X111042147Y-65460695D01*
X111098811Y-65484167D01*
X111197906Y-65558350D01*
X111197913Y-65558354D01*
X111332620Y-65608596D01*
X111332627Y-65608598D01*
X111392155Y-65614999D01*
X111392172Y-65615000D01*
X112040000Y-65615000D01*
X112040000Y-64698012D01*
X112097007Y-64730925D01*
X112224174Y-64765000D01*
X112355826Y-64765000D01*
X112482993Y-64730925D01*
X112540000Y-64698012D01*
X112540000Y-65615000D01*
X113187828Y-65615000D01*
X113187844Y-65614999D01*
X113247372Y-65608598D01*
X113247379Y-65608596D01*
X113382086Y-65558354D01*
X113382090Y-65558352D01*
X113425949Y-65525518D01*
X113491412Y-65501099D01*
X113536058Y-65510809D01*
X113526099Y-65484108D01*
X113540951Y-65415835D01*
X113550518Y-65400949D01*
X113583352Y-65357090D01*
X113583354Y-65357086D01*
X113633596Y-65222379D01*
X113633598Y-65222372D01*
X113639999Y-65162844D01*
X113640000Y-65162827D01*
X113640000Y-64515000D01*
X112723012Y-64515000D01*
X112755925Y-64457993D01*
X112790000Y-64330826D01*
X112790000Y-64199174D01*
X112755925Y-64072007D01*
X112723012Y-64015000D01*
X113640000Y-64015000D01*
X113640000Y-63367172D01*
X113639999Y-63367155D01*
X113633598Y-63307627D01*
X113633596Y-63307620D01*
X113583354Y-63172913D01*
X113583350Y-63172906D01*
X113497190Y-63057812D01*
X113497187Y-63057809D01*
X113382093Y-62971649D01*
X113382088Y-62971646D01*
X113250528Y-62922577D01*
X113194595Y-62880705D01*
X113170178Y-62815241D01*
X113185030Y-62746968D01*
X113206175Y-62718720D01*
X113328495Y-62596401D01*
X113464035Y-62402830D01*
X113563903Y-62188663D01*
X113625063Y-61960408D01*
X113645659Y-61725000D01*
X113625063Y-61489592D01*
X113563903Y-61261337D01*
X113464035Y-61047171D01*
X113404124Y-60961608D01*
X113328494Y-60853597D01*
X113161402Y-60686506D01*
X113161395Y-60686501D01*
X112967834Y-60550967D01*
X112967830Y-60550965D01*
X112967828Y-60550964D01*
X112753663Y-60451097D01*
X112753659Y-60451096D01*
X112753655Y-60451094D01*
X112525413Y-60389938D01*
X112525403Y-60389936D01*
X112290001Y-60369341D01*
X112289999Y-60369341D01*
X112054596Y-60389936D01*
X112054586Y-60389938D01*
X111826344Y-60451094D01*
X111826335Y-60451098D01*
X111612171Y-60550964D01*
X111612169Y-60550965D01*
X111418597Y-60686505D01*
X111251505Y-60853597D01*
X111126075Y-61032731D01*
X111071498Y-61076356D01*
X111002000Y-61083549D01*
X110939645Y-61052027D01*
X110904231Y-60991797D01*
X110900500Y-60961608D01*
X110900500Y-46524500D01*
X110920185Y-46457461D01*
X110972989Y-46411706D01*
X111024500Y-46400500D01*
X124775500Y-46400500D01*
X124842539Y-46420185D01*
G37*
%TD.AperFunction*%
%TD*%
M02*
