%TF.GenerationSoftware,KiCad,Pcbnew,8.0.4*%
%TF.CreationDate,2024-09-13T17:58:40-07:00*%
%TF.ProjectId,gnss-test,676e7373-2d74-4657-9374-2e6b69636164,rev?*%
%TF.SameCoordinates,Original*%
%TF.FileFunction,Copper,L2,Bot*%
%TF.FilePolarity,Positive*%
%FSLAX46Y46*%
G04 Gerber Fmt 4.6, Leading zero omitted, Abs format (unit mm)*
G04 Created by KiCad (PCBNEW 8.0.4) date 2024-09-13 17:58:40*
%MOMM*%
%LPD*%
G01*
G04 APERTURE LIST*
%TA.AperFunction,ComponentPad*%
%ADD10R,1.700000X1.700000*%
%TD*%
%TA.AperFunction,ComponentPad*%
%ADD11O,1.700000X1.700000*%
%TD*%
%TA.AperFunction,ViaPad*%
%ADD12C,0.600000*%
%TD*%
G04 APERTURE END LIST*
D10*
%TO.P,J2,1,Pin_1*%
%TO.N,~{GPS_RTC_PWR_EN}*%
X162175000Y-85825000D03*
D11*
%TO.P,J2,2,Pin_2*%
%TO.N,~{GPS_PWR_EN}*%
X164715000Y-85825000D03*
%TD*%
D10*
%TO.P,J1,1,Pin_1*%
%TO.N,GND*%
X157650000Y-81925000D03*
D11*
%TO.P,J1,2,Pin_2*%
%TO.N,+3.3V*%
X157650000Y-84465000D03*
%TD*%
D10*
%TO.P,J3,1,Pin_1*%
%TO.N,GPS_UART_TX*%
X160275000Y-78200000D03*
D11*
%TO.P,J3,2,Pin_2*%
%TO.N,GPS_UART_RX*%
X157735000Y-78200000D03*
%TD*%
D12*
%TO.N,GND*%
X169470000Y-63330000D03*
X156710000Y-55090000D03*
X167260000Y-71150000D03*
X159360000Y-53840000D03*
X161800000Y-62570000D03*
X168370000Y-74040000D03*
X169870000Y-84660000D03*
X171220000Y-56050000D03*
X167260000Y-73850000D03*
X171240000Y-59980000D03*
X169780000Y-72190000D03*
X171320000Y-62700000D03*
X158010000Y-60940000D03*
X166940000Y-82570000D03*
X171320000Y-80990000D03*
X168410000Y-85280000D03*
X169870000Y-65400000D03*
X158990000Y-64680000D03*
X171240000Y-58570000D03*
X167290000Y-66480000D03*
X171340000Y-66940000D03*
X167530000Y-59940000D03*
X171320000Y-82470000D03*
X159360000Y-60940000D03*
X169510000Y-61480000D03*
X156710000Y-53430000D03*
X159390000Y-57490000D03*
X161650000Y-58500000D03*
X156660000Y-58530000D03*
X171340000Y-76730000D03*
X171320000Y-68340000D03*
X167490000Y-61660000D03*
X156710000Y-56810000D03*
X166920000Y-83780000D03*
X159390000Y-62510000D03*
X160120000Y-64650000D03*
X168370000Y-70510000D03*
X160030000Y-63700000D03*
X156770000Y-60060000D03*
X171240000Y-57200000D03*
X171340000Y-71170000D03*
X168370000Y-65230000D03*
X171340000Y-72530000D03*
X163210000Y-59840000D03*
X161870000Y-59660000D03*
X169170000Y-58450000D03*
X171320000Y-78160000D03*
X166940000Y-84860000D03*
X161410000Y-64620000D03*
X156800000Y-86800000D03*
X167260000Y-68210000D03*
X168410000Y-86840000D03*
X157520000Y-52410000D03*
X169740000Y-56070000D03*
X158120000Y-86760000D03*
X162570000Y-64680000D03*
X157730000Y-64740000D03*
X171320000Y-73900000D03*
X171320000Y-86840000D03*
X166110000Y-61480000D03*
X166060000Y-63930000D03*
X167260000Y-69570000D03*
X163700000Y-64710000D03*
X159480000Y-59320000D03*
X160730000Y-53870000D03*
X167050000Y-81160000D03*
X171340000Y-65540000D03*
X166110000Y-58470000D03*
X158310000Y-53870000D03*
X158010000Y-62540000D03*
X171320000Y-75330000D03*
X161990000Y-60980000D03*
X169810000Y-86860000D03*
X166960000Y-85860000D03*
X167310000Y-63330000D03*
X169710000Y-57300000D03*
X166900000Y-79740000D03*
X156770000Y-61370000D03*
X161740000Y-63580000D03*
X166110000Y-59920000D03*
X159320000Y-55560000D03*
X168370000Y-81270000D03*
X169730000Y-79600000D03*
X163210000Y-61830000D03*
X168190000Y-83610000D03*
X160700000Y-56600000D03*
X167080000Y-86860000D03*
X169210000Y-59940000D03*
X158070000Y-57490000D03*
X168540000Y-67650000D03*
X171320000Y-79590000D03*
X158070000Y-55650000D03*
X156720000Y-64130000D03*
X160640000Y-62630000D03*
X160760000Y-60940000D03*
X158160000Y-63730000D03*
X167590000Y-76840000D03*
X169690000Y-82330000D03*
X171320000Y-64080000D03*
X160670000Y-55250000D03*
X171290000Y-83850000D03*
X163050000Y-80580000D03*
X169510000Y-77390000D03*
X163210000Y-60820000D03*
X171290000Y-61330000D03*
X166090000Y-62680000D03*
X158040000Y-59320000D03*
X167260000Y-75280000D03*
X169820000Y-68840000D03*
X167590000Y-58450000D03*
X171290000Y-85460000D03*
X166780000Y-78340000D03*
X169780000Y-75580000D03*
X167240000Y-72530000D03*
X156720000Y-62750000D03*
X166930000Y-64920000D03*
X168280000Y-78630000D03*
X159480000Y-86730000D03*
X171320000Y-69770000D03*
%TD*%
%TA.AperFunction,Conductor*%
%TO.N,GND*%
G36*
X161463039Y-51700185D02*
G01*
X161508794Y-51752989D01*
X161520000Y-51804500D01*
X161520000Y-57850000D01*
X168670000Y-57850000D01*
X168850000Y-57670000D01*
X168850000Y-51804500D01*
X168869685Y-51737461D01*
X168922489Y-51691706D01*
X168974000Y-51680500D01*
X171855500Y-51680500D01*
X171922539Y-51700185D01*
X171968294Y-51752989D01*
X171979500Y-51804500D01*
X171979500Y-87055500D01*
X171959815Y-87122539D01*
X171907011Y-87168294D01*
X171855500Y-87179500D01*
X165528377Y-87179500D01*
X165461338Y-87159815D01*
X165415583Y-87107011D01*
X165405639Y-87037853D01*
X165434664Y-86974297D01*
X165457254Y-86953925D01*
X165509515Y-86917331D01*
X165586401Y-86863495D01*
X165753495Y-86696401D01*
X165889035Y-86502830D01*
X165988903Y-86288663D01*
X166050063Y-86060408D01*
X166070659Y-85825000D01*
X166050063Y-85589592D01*
X165988903Y-85361337D01*
X165889035Y-85147171D01*
X165885999Y-85142834D01*
X165753494Y-84953597D01*
X165586402Y-84786506D01*
X165586395Y-84786501D01*
X165392834Y-84650967D01*
X165392830Y-84650965D01*
X165392828Y-84650964D01*
X165178663Y-84551097D01*
X165178659Y-84551096D01*
X165178655Y-84551094D01*
X164950413Y-84489938D01*
X164950403Y-84489936D01*
X164715001Y-84469341D01*
X164714999Y-84469341D01*
X164479596Y-84489936D01*
X164479586Y-84489938D01*
X164251344Y-84551094D01*
X164251335Y-84551098D01*
X164037171Y-84650964D01*
X164037169Y-84650965D01*
X163843600Y-84786503D01*
X163721673Y-84908430D01*
X163660350Y-84941914D01*
X163590658Y-84936930D01*
X163534725Y-84895058D01*
X163517810Y-84864081D01*
X163468797Y-84732671D01*
X163468793Y-84732664D01*
X163382547Y-84617455D01*
X163382544Y-84617452D01*
X163267335Y-84531206D01*
X163267328Y-84531202D01*
X163132482Y-84480908D01*
X163132483Y-84480908D01*
X163072883Y-84474501D01*
X163072881Y-84474500D01*
X163072873Y-84474500D01*
X163072864Y-84474500D01*
X161277129Y-84474500D01*
X161277123Y-84474501D01*
X161217516Y-84480908D01*
X161082671Y-84531202D01*
X161082664Y-84531206D01*
X160967455Y-84617452D01*
X160967452Y-84617455D01*
X160881206Y-84732664D01*
X160881202Y-84732671D01*
X160830908Y-84867517D01*
X160824501Y-84927116D01*
X160824500Y-84927135D01*
X160824500Y-86722870D01*
X160824501Y-86722876D01*
X160830908Y-86782483D01*
X160881202Y-86917328D01*
X160881204Y-86917331D01*
X160929008Y-86981189D01*
X160953426Y-87046652D01*
X160938575Y-87114925D01*
X160889170Y-87164331D01*
X160829742Y-87179500D01*
X156124500Y-87179500D01*
X156057461Y-87159815D01*
X156011706Y-87107011D01*
X156000500Y-87055500D01*
X156000500Y-84464999D01*
X156294341Y-84464999D01*
X156294341Y-84465000D01*
X156314936Y-84700403D01*
X156314938Y-84700413D01*
X156376094Y-84928655D01*
X156376096Y-84928659D01*
X156376097Y-84928663D01*
X156387724Y-84953597D01*
X156475965Y-85142830D01*
X156475967Y-85142834D01*
X156584281Y-85297521D01*
X156611505Y-85336401D01*
X156778599Y-85503495D01*
X156875384Y-85571265D01*
X156972165Y-85639032D01*
X156972167Y-85639033D01*
X156972170Y-85639035D01*
X157186337Y-85738903D01*
X157414592Y-85800063D01*
X157602918Y-85816539D01*
X157649999Y-85820659D01*
X157650000Y-85820659D01*
X157650001Y-85820659D01*
X157689234Y-85817226D01*
X157885408Y-85800063D01*
X158113663Y-85738903D01*
X158327830Y-85639035D01*
X158521401Y-85503495D01*
X158688495Y-85336401D01*
X158824035Y-85142830D01*
X158923903Y-84928663D01*
X158985063Y-84700408D01*
X159005659Y-84465000D01*
X158985063Y-84229592D01*
X158923903Y-84001337D01*
X158824035Y-83787171D01*
X158688495Y-83593599D01*
X158566179Y-83471283D01*
X158532696Y-83409963D01*
X158537680Y-83340271D01*
X158579551Y-83284337D01*
X158610529Y-83267422D01*
X158742086Y-83218354D01*
X158742093Y-83218350D01*
X158857187Y-83132190D01*
X158857190Y-83132187D01*
X158943350Y-83017093D01*
X158943354Y-83017086D01*
X158993596Y-82882379D01*
X158993598Y-82882372D01*
X158999999Y-82822844D01*
X159000000Y-82822827D01*
X159000000Y-82175000D01*
X158083012Y-82175000D01*
X158115925Y-82117993D01*
X158150000Y-81990826D01*
X158150000Y-81859174D01*
X158115925Y-81732007D01*
X158083012Y-81675000D01*
X159000000Y-81675000D01*
X159000000Y-81027172D01*
X158999999Y-81027155D01*
X158993598Y-80967627D01*
X158993596Y-80967620D01*
X158943354Y-80832913D01*
X158943350Y-80832906D01*
X158857190Y-80717812D01*
X158857187Y-80717809D01*
X158742093Y-80631649D01*
X158742086Y-80631645D01*
X158607379Y-80581403D01*
X158607372Y-80581401D01*
X158547844Y-80575000D01*
X157900000Y-80575000D01*
X157900000Y-81491988D01*
X157842993Y-81459075D01*
X157715826Y-81425000D01*
X157584174Y-81425000D01*
X157457007Y-81459075D01*
X157400000Y-81491988D01*
X157400000Y-80575000D01*
X156752155Y-80575000D01*
X156692627Y-80581401D01*
X156692620Y-80581403D01*
X156557913Y-80631645D01*
X156557906Y-80631649D01*
X156442812Y-80717809D01*
X156442809Y-80717812D01*
X156356649Y-80832906D01*
X156356645Y-80832913D01*
X156306403Y-80967620D01*
X156306401Y-80967627D01*
X156300000Y-81027155D01*
X156300000Y-81675000D01*
X157216988Y-81675000D01*
X157184075Y-81732007D01*
X157150000Y-81859174D01*
X157150000Y-81990826D01*
X157184075Y-82117993D01*
X157216988Y-82175000D01*
X156300000Y-82175000D01*
X156300000Y-82822844D01*
X156306401Y-82882372D01*
X156306403Y-82882379D01*
X156356645Y-83017086D01*
X156356649Y-83017093D01*
X156442809Y-83132187D01*
X156442812Y-83132190D01*
X156557906Y-83218350D01*
X156557913Y-83218354D01*
X156689470Y-83267421D01*
X156745403Y-83309292D01*
X156769821Y-83374756D01*
X156754970Y-83443029D01*
X156733819Y-83471284D01*
X156611503Y-83593600D01*
X156475965Y-83787169D01*
X156475964Y-83787171D01*
X156376098Y-84001335D01*
X156376094Y-84001344D01*
X156314938Y-84229586D01*
X156314936Y-84229596D01*
X156294341Y-84464999D01*
X156000500Y-84464999D01*
X156000500Y-78199999D01*
X156379341Y-78199999D01*
X156379341Y-78200000D01*
X156399936Y-78435403D01*
X156399938Y-78435413D01*
X156461094Y-78663655D01*
X156461096Y-78663659D01*
X156461097Y-78663663D01*
X156545499Y-78844663D01*
X156560965Y-78877830D01*
X156560967Y-78877834D01*
X156669281Y-79032521D01*
X156696505Y-79071401D01*
X156863599Y-79238495D01*
X156960384Y-79306265D01*
X157057165Y-79374032D01*
X157057167Y-79374033D01*
X157057170Y-79374035D01*
X157271337Y-79473903D01*
X157499592Y-79535063D01*
X157676034Y-79550500D01*
X157734999Y-79555659D01*
X157735000Y-79555659D01*
X157735001Y-79555659D01*
X157793966Y-79550500D01*
X157970408Y-79535063D01*
X158198663Y-79473903D01*
X158412830Y-79374035D01*
X158606401Y-79238495D01*
X158728329Y-79116566D01*
X158789648Y-79083084D01*
X158859340Y-79088068D01*
X158915274Y-79129939D01*
X158932189Y-79160917D01*
X158981202Y-79292328D01*
X158981206Y-79292335D01*
X159067452Y-79407544D01*
X159067455Y-79407547D01*
X159182664Y-79493793D01*
X159182671Y-79493797D01*
X159317517Y-79544091D01*
X159317516Y-79544091D01*
X159324444Y-79544835D01*
X159377127Y-79550500D01*
X161172872Y-79550499D01*
X161232483Y-79544091D01*
X161367331Y-79493796D01*
X161482546Y-79407546D01*
X161568796Y-79292331D01*
X161619091Y-79157483D01*
X161625500Y-79097873D01*
X161625499Y-77302128D01*
X161619091Y-77242517D01*
X161617810Y-77239083D01*
X161568797Y-77107671D01*
X161568793Y-77107664D01*
X161482547Y-76992455D01*
X161482544Y-76992452D01*
X161367335Y-76906206D01*
X161367328Y-76906202D01*
X161232482Y-76855908D01*
X161232483Y-76855908D01*
X161172883Y-76849501D01*
X161172881Y-76849500D01*
X161172873Y-76849500D01*
X161172864Y-76849500D01*
X159377129Y-76849500D01*
X159377123Y-76849501D01*
X159317516Y-76855908D01*
X159182671Y-76906202D01*
X159182664Y-76906206D01*
X159067455Y-76992452D01*
X159067452Y-76992455D01*
X158981206Y-77107664D01*
X158981203Y-77107669D01*
X158932189Y-77239083D01*
X158890317Y-77295016D01*
X158824853Y-77319433D01*
X158756580Y-77304581D01*
X158728326Y-77283430D01*
X158606402Y-77161506D01*
X158606395Y-77161501D01*
X158412834Y-77025967D01*
X158412830Y-77025965D01*
X158412828Y-77025964D01*
X158198663Y-76926097D01*
X158198659Y-76926096D01*
X158198655Y-76926094D01*
X157970413Y-76864938D01*
X157970403Y-76864936D01*
X157735001Y-76844341D01*
X157734999Y-76844341D01*
X157499596Y-76864936D01*
X157499586Y-76864938D01*
X157271344Y-76926094D01*
X157271335Y-76926098D01*
X157057171Y-77025964D01*
X157057169Y-77025965D01*
X156863597Y-77161505D01*
X156696505Y-77328597D01*
X156560965Y-77522169D01*
X156560964Y-77522171D01*
X156461098Y-77736335D01*
X156461094Y-77736344D01*
X156399938Y-77964586D01*
X156399936Y-77964596D01*
X156379341Y-78199999D01*
X156000500Y-78199999D01*
X156000500Y-51804500D01*
X156020185Y-51737461D01*
X156072989Y-51691706D01*
X156124500Y-51680500D01*
X161396000Y-51680500D01*
X161463039Y-51700185D01*
G37*
%TD.AperFunction*%
%TD*%
M02*
