%TF.GenerationSoftware,KiCad,Pcbnew,8.0.4*%
%TF.CreationDate,2024-09-13T17:59:22-07:00*%
%TF.ProjectId,powerTest,706f7765-7254-4657-9374-2e6b69636164,rev?*%
%TF.SameCoordinates,Original*%
%TF.FileFunction,Copper,L1,Top*%
%TF.FilePolarity,Positive*%
%FSLAX46Y46*%
G04 Gerber Fmt 4.6, Leading zero omitted, Abs format (unit mm)*
G04 Created by KiCad (PCBNEW 8.0.4) date 2024-09-13 17:59:22*
%MOMM*%
%LPD*%
G01*
G04 APERTURE LIST*
G04 Aperture macros list*
%AMRoundRect*
0 Rectangle with rounded corners*
0 $1 Rounding radius*
0 $2 $3 $4 $5 $6 $7 $8 $9 X,Y pos of 4 corners*
0 Add a 4 corners polygon primitive as box body*
4,1,4,$2,$3,$4,$5,$6,$7,$8,$9,$2,$3,0*
0 Add four circle primitives for the rounded corners*
1,1,$1+$1,$2,$3*
1,1,$1+$1,$4,$5*
1,1,$1+$1,$6,$7*
1,1,$1+$1,$8,$9*
0 Add four rect primitives between the rounded corners*
20,1,$1+$1,$2,$3,$4,$5,0*
20,1,$1+$1,$4,$5,$6,$7,0*
20,1,$1+$1,$6,$7,$8,$9,0*
20,1,$1+$1,$8,$9,$2,$3,0*%
G04 Aperture macros list end*
%TA.AperFunction,EtchedComponent*%
%ADD10C,0.000000*%
%TD*%
%TA.AperFunction,ComponentPad*%
%ADD11R,1.700000X1.700000*%
%TD*%
%TA.AperFunction,SMDPad,CuDef*%
%ADD12RoundRect,0.200000X-0.200000X-0.275000X0.200000X-0.275000X0.200000X0.275000X-0.200000X0.275000X0*%
%TD*%
%TA.AperFunction,ComponentPad*%
%ADD13O,1.700000X1.700000*%
%TD*%
%TA.AperFunction,SMDPad,CuDef*%
%ADD14RoundRect,0.062500X0.375000X0.062500X-0.375000X0.062500X-0.375000X-0.062500X0.375000X-0.062500X0*%
%TD*%
%TA.AperFunction,SMDPad,CuDef*%
%ADD15RoundRect,0.062500X0.062500X0.375000X-0.062500X0.375000X-0.062500X-0.375000X0.062500X-0.375000X0*%
%TD*%
%TA.AperFunction,HeatsinkPad*%
%ADD16R,2.300000X2.300000*%
%TD*%
%TA.AperFunction,SMDPad,CuDef*%
%ADD17RoundRect,0.200000X0.275000X-0.200000X0.275000X0.200000X-0.275000X0.200000X-0.275000X-0.200000X0*%
%TD*%
%TA.AperFunction,SMDPad,CuDef*%
%ADD18RoundRect,0.200000X-0.275000X0.200000X-0.275000X-0.200000X0.275000X-0.200000X0.275000X0.200000X0*%
%TD*%
%TA.AperFunction,SMDPad,CuDef*%
%ADD19RoundRect,0.225000X0.250000X-0.225000X0.250000X0.225000X-0.250000X0.225000X-0.250000X-0.225000X0*%
%TD*%
%TA.AperFunction,SMDPad,CuDef*%
%ADD20R,1.500000X1.000000*%
%TD*%
%TA.AperFunction,SMDPad,CuDef*%
%ADD21RoundRect,0.225000X-0.225000X-0.250000X0.225000X-0.250000X0.225000X0.250000X-0.225000X0.250000X0*%
%TD*%
%TA.AperFunction,SMDPad,CuDef*%
%ADD22RoundRect,0.225000X-0.250000X0.225000X-0.250000X-0.225000X0.250000X-0.225000X0.250000X0.225000X0*%
%TD*%
%TA.AperFunction,SMDPad,CuDef*%
%ADD23RoundRect,0.218750X0.256250X-0.218750X0.256250X0.218750X-0.256250X0.218750X-0.256250X-0.218750X0*%
%TD*%
%TA.AperFunction,SMDPad,CuDef*%
%ADD24RoundRect,0.150000X-0.587500X-0.150000X0.587500X-0.150000X0.587500X0.150000X-0.587500X0.150000X0*%
%TD*%
%TA.AperFunction,SMDPad,CuDef*%
%ADD25RoundRect,0.218750X-0.256250X0.218750X-0.256250X-0.218750X0.256250X-0.218750X0.256250X0.218750X0*%
%TD*%
%TA.AperFunction,SMDPad,CuDef*%
%ADD26RoundRect,0.200000X0.200000X0.275000X-0.200000X0.275000X-0.200000X-0.275000X0.200000X-0.275000X0*%
%TD*%
%TA.AperFunction,SMDPad,CuDef*%
%ADD27R,0.670001X0.299999*%
%TD*%
%TA.AperFunction,ViaPad*%
%ADD28C,0.600000*%
%TD*%
%TA.AperFunction,Conductor*%
%ADD29C,0.200000*%
%TD*%
G04 APERTURE END LIST*
D10*
%TA.AperFunction,EtchedComponent*%
%TO.C,JP1*%
G36*
X118950000Y-102150000D02*
G01*
X118350000Y-102150000D01*
X118350000Y-101650000D01*
X118950000Y-101650000D01*
X118950000Y-102150000D01*
G37*
%TD.AperFunction*%
%TA.AperFunction,EtchedComponent*%
%TO.C,JP2*%
G36*
X119850000Y-108150000D02*
G01*
X119250000Y-108150000D01*
X119250000Y-107650000D01*
X119850000Y-107650000D01*
X119850000Y-108150000D01*
G37*
%TD.AperFunction*%
%TD*%
D11*
%TO.P,J9,1,Pin_1*%
%TO.N,+3.3V*%
X101250000Y-100900000D03*
%TD*%
D12*
%TO.P,R8,1*%
%TO.N,Net-(J1-Pin_2)*%
X109700000Y-98650000D03*
%TO.P,R8,2*%
%TO.N,Net-(U1-MPPT)*%
X111350000Y-98650000D03*
%TD*%
D11*
%TO.P,J1,1,Pin_1*%
%TO.N,GND*%
X113040000Y-93775000D03*
D13*
%TO.P,J1,2,Pin_2*%
%TO.N,Net-(J1-Pin_2)*%
X110500000Y-93775000D03*
%TD*%
D14*
%TO.P,U1,1,REF*%
%TO.N,Net-(JP2-A)*%
X111687500Y-104437500D03*
%TO.P,U1,2,SETSD*%
%TO.N,/SETSD*%
X111687500Y-103937500D03*
%TO.P,U1,3,SETBK*%
%TO.N,GND*%
X111687500Y-103437500D03*
%TO.P,U1,4,TERM*%
%TO.N,Net-(JP1-A)*%
X111687500Y-102937500D03*
%TO.P,U1,5,SETPG*%
%TO.N,Net-(U1-SETPG)*%
X111687500Y-102437500D03*
%TO.P,U1,6,SETHYST*%
%TO.N,Net-(U1-SETHYST)*%
X111687500Y-101937500D03*
D15*
%TO.P,U1,7,AGND*%
%TO.N,GND*%
X111000000Y-101250000D03*
%TO.P,U1,8,CBP*%
%TO.N,Net-(U1-CBP)*%
X110500000Y-101250000D03*
%TO.P,U1,9,MPPT*%
%TO.N,Net-(U1-MPPT)*%
X110000000Y-101250000D03*
%TO.P,U1,10,VIN*%
%TO.N,Net-(J1-Pin_2)*%
X109500000Y-101250000D03*
%TO.P,U1,11,LLD*%
%TO.N,LLD*%
X109000000Y-101250000D03*
%TO.P,U1,12,PGND*%
%TO.N,GND*%
X108500000Y-101250000D03*
D14*
%TO.P,U1,13,SW*%
%TO.N,Net-(U1-SW)*%
X107812500Y-101937500D03*
%TO.P,U1,14,REG_OUT*%
%TO.N,+3.3V*%
X107812500Y-102437500D03*
%TO.P,U1,15,REG_FB*%
X107812500Y-102937500D03*
%TO.P,U1,16,SYS*%
%TO.N,VSS*%
X107812500Y-103437500D03*
%TO.P,U1,17,BAT*%
%TO.N,Net-(J2-Pin_1)*%
X107812500Y-103937500D03*
%TO.P,U1,18,BACK_UP*%
%TO.N,unconnected-(U1-BACK_UP-Pad18)*%
X107812500Y-104437500D03*
D15*
%TO.P,U1,19,PGOOD*%
%TO.N,unconnected-(U1-PGOOD-Pad19)*%
X108500000Y-105125000D03*
%TO.P,U1,20,VID*%
%TO.N,Net-(U1-VID)*%
X109000000Y-105125000D03*
%TO.P,U1,21,MINOP*%
%TO.N,Net-(U1-MINOP)*%
X109500000Y-105125000D03*
%TO.P,U1,22,DIS_SW*%
%TO.N,~{CHRGR_EN}*%
X110000000Y-105125000D03*
%TO.P,U1,23,REG_D1*%
%TO.N,VSS*%
X110500000Y-105125000D03*
%TO.P,U1,24,REG_D0*%
X111000000Y-105125000D03*
D16*
%TO.P,U1,25,AGND*%
%TO.N,GND*%
X109750000Y-103187500D03*
%TD*%
D17*
%TO.P,R14,1*%
%TO.N,5V_EN*%
X100700000Y-108725000D03*
%TO.P,R14,2*%
%TO.N,GND*%
X100700000Y-107075000D03*
%TD*%
D18*
%TO.P,R16,1*%
%TO.N,Net-(U2-FB)*%
X98800000Y-107775000D03*
%TO.P,R16,2*%
%TO.N,GND*%
X98800000Y-109425000D03*
%TD*%
D19*
%TO.P,C5,1*%
%TO.N,+3.3V*%
X104100000Y-101950000D03*
%TO.P,C5,2*%
%TO.N,GND*%
X104100000Y-100400000D03*
%TD*%
D18*
%TO.P,R11,1*%
%TO.N,Net-(JP2-B)*%
X119550000Y-111750000D03*
%TO.P,R11,2*%
%TO.N,/SETSD*%
X119550000Y-113400000D03*
%TD*%
D11*
%TO.P,J8,1,Pin_1*%
%TO.N,GND*%
X105200000Y-92500000D03*
%TD*%
D20*
%TO.P,JP1,1,A*%
%TO.N,Net-(JP1-A)*%
X118650000Y-102550000D03*
%TO.P,JP1,2,C*%
%TO.N,Net-(JP1-C)*%
X118650000Y-101250000D03*
%TO.P,JP1,3,B*%
%TO.N,Net-(JP1-B)*%
X118650000Y-99950000D03*
%TD*%
D17*
%TO.P,R3,1*%
%TO.N,Net-(JP2-A)*%
X116500000Y-102900000D03*
%TO.P,R3,2*%
%TO.N,Net-(U1-SETPG)*%
X116500000Y-101250000D03*
%TD*%
D11*
%TO.P,J5,1,Pin_1*%
%TO.N,LLD*%
X106900000Y-97750000D03*
%TD*%
%TO.P,J2,1,Pin_1*%
%TO.N,Net-(J2-Pin_1)*%
X105000000Y-105500000D03*
D13*
%TO.P,J2,2,Pin_2*%
%TO.N,GND*%
X105000000Y-108040000D03*
%TD*%
D11*
%TO.P,J3,1,Pin_1*%
%TO.N,Net-(J3-Pin_1)*%
X97200000Y-96900000D03*
D13*
%TO.P,J3,2,Pin_2*%
%TO.N,GND*%
X97200000Y-99440000D03*
%TD*%
D21*
%TO.P,C2,1*%
%TO.N,Net-(J1-Pin_2)*%
X109725000Y-96650000D03*
%TO.P,C2,2*%
%TO.N,GND*%
X111275000Y-96650000D03*
%TD*%
D12*
%TO.P,R6,1*%
%TO.N,Net-(JP2-A)*%
X116450000Y-104450000D03*
%TO.P,R6,2*%
%TO.N,Net-(JP1-A)*%
X118100000Y-104450000D03*
%TD*%
D17*
%TO.P,R7,1*%
%TO.N,Net-(JP1-B)*%
X118650000Y-98000000D03*
%TO.P,R7,2*%
%TO.N,GND*%
X118650000Y-96350000D03*
%TD*%
D22*
%TO.P,C6,1*%
%TO.N,+5V*%
X97200000Y-107825000D03*
%TO.P,C6,2*%
%TO.N,GND*%
X97200000Y-109375000D03*
%TD*%
D11*
%TO.P,J6,1,Pin_1*%
%TO.N,5V_EN*%
X101300000Y-112200000D03*
%TD*%
D18*
%TO.P,R1,1*%
%TO.N,Net-(U1-VID)*%
X107700000Y-106900000D03*
%TO.P,R1,2*%
%TO.N,GND*%
X107700000Y-108550000D03*
%TD*%
D22*
%TO.P,C4,1*%
%TO.N,VSS*%
X100650000Y-103900000D03*
%TO.P,C4,2*%
%TO.N,GND*%
X100650000Y-105450000D03*
%TD*%
D11*
%TO.P,J11,1,Pin_1*%
%TO.N,+5V*%
X96600000Y-112200000D03*
%TD*%
D22*
%TO.P,C3,1*%
%TO.N,VSS*%
X102400000Y-103950000D03*
%TO.P,C3,2*%
%TO.N,GND*%
X102400000Y-105500000D03*
%TD*%
D17*
%TO.P,R2,1*%
%TO.N,GND*%
X109500000Y-108600000D03*
%TO.P,R2,2*%
%TO.N,Net-(U1-MINOP)*%
X109500000Y-106950000D03*
%TD*%
D21*
%TO.P,C1,1*%
%TO.N,Net-(U1-CBP)*%
X113350000Y-100250000D03*
%TO.P,C1,2*%
%TO.N,GND*%
X114900000Y-100250000D03*
%TD*%
D23*
%TO.P,L2,1,1*%
%TO.N,VSS*%
X95500000Y-105675000D03*
%TO.P,L2,2,2*%
%TO.N,Net-(U2-SW)*%
X95500000Y-104100000D03*
%TD*%
D24*
%TO.P,Q1,1,G*%
%TO.N,~{SNSR_EN}*%
X100425000Y-95900000D03*
%TO.P,Q1,2,S*%
%TO.N,Net-(J3-Pin_1)*%
X100425000Y-97800000D03*
%TO.P,Q1,3,D*%
%TO.N,+3.3V*%
X102300000Y-96850000D03*
%TD*%
D25*
%TO.P,L1,1,1*%
%TO.N,Net-(J1-Pin_2)*%
X105800000Y-100362500D03*
%TO.P,L1,2,2*%
%TO.N,Net-(U1-SW)*%
X105800000Y-101937500D03*
%TD*%
D12*
%TO.P,R15,1*%
%TO.N,+5V*%
X97175000Y-106200000D03*
%TO.P,R15,2*%
%TO.N,Net-(U2-FB)*%
X98825000Y-106200000D03*
%TD*%
D11*
%TO.P,J4,1,Pin_1*%
%TO.N,~{CHRGR_EN}*%
X112400000Y-108050000D03*
%TD*%
D18*
%TO.P,R13,1*%
%TO.N,Net-(JP2-C)*%
X121850000Y-108550000D03*
%TO.P,R13,2*%
%TO.N,/SETSD*%
X121850000Y-110200000D03*
%TD*%
D26*
%TO.P,R9,1*%
%TO.N,GND*%
X114925000Y-98650000D03*
%TO.P,R9,2*%
%TO.N,Net-(U1-MPPT)*%
X113275000Y-98650000D03*
%TD*%
D17*
%TO.P,R10,1*%
%TO.N,Net-(JP1-C)*%
X120900000Y-101250000D03*
%TO.P,R10,2*%
%TO.N,GND*%
X120900000Y-99600000D03*
%TD*%
D18*
%TO.P,R12,1*%
%TO.N,/SETSD*%
X121850000Y-111750000D03*
%TO.P,R12,2*%
%TO.N,GND*%
X121850000Y-113400000D03*
%TD*%
D20*
%TO.P,JP2,1,A*%
%TO.N,Net-(JP2-A)*%
X119550000Y-107250000D03*
%TO.P,JP2,2,C*%
%TO.N,Net-(JP2-C)*%
X119550000Y-108550000D03*
%TO.P,JP2,3,B*%
%TO.N,Net-(JP2-B)*%
X119550000Y-109850000D03*
%TD*%
D11*
%TO.P,J10,1,Pin_1*%
%TO.N,VSS*%
X116300000Y-108050000D03*
%TD*%
%TO.P,J7,1,Pin_1*%
%TO.N,~{SNSR_EN}*%
X101000000Y-92500000D03*
%TD*%
D27*
%TO.P,U2,1,FB*%
%TO.N,Net-(U2-FB)*%
X98680002Y-104600000D03*
%TO.P,U2,2,EN*%
%TO.N,5V_EN*%
X98680002Y-104100001D03*
%TO.P,U2,3,VIN*%
%TO.N,VSS*%
X98680002Y-103599999D03*
%TO.P,U2,4,GND*%
%TO.N,GND*%
X97200000Y-103599999D03*
%TO.P,U2,5,SW*%
%TO.N,Net-(U2-SW)*%
X97200000Y-104100001D03*
%TO.P,U2,6,VOUT*%
%TO.N,+5V*%
X97200000Y-104600000D03*
%TD*%
D17*
%TO.P,R5,1*%
%TO.N,Net-(U1-SETHYST)*%
X116500000Y-96600000D03*
%TO.P,R5,2*%
%TO.N,GND*%
X116500000Y-94950000D03*
%TD*%
%TO.P,R4,1*%
%TO.N,Net-(U1-SETPG)*%
X116500000Y-99725000D03*
%TO.P,R4,2*%
%TO.N,Net-(U1-SETHYST)*%
X116500000Y-98075000D03*
%TD*%
D28*
%TO.N,GND*%
X114850000Y-96500000D03*
X107700000Y-110300000D03*
X102300000Y-107100000D03*
X109500000Y-110300000D03*
X99000000Y-110600000D03*
X121900000Y-115100000D03*
%TO.N,Net-(JP1-A)*%
X113300000Y-103150000D03*
X119700000Y-104450000D03*
%TO.N,/SETSD*%
X123000000Y-111750000D03*
X114750000Y-103400000D03*
%TO.N,VSS*%
X95500000Y-107000000D03*
X116000000Y-111000000D03*
X98700000Y-102300000D03*
%TD*%
D29*
%TO.N,GND*%
X117900000Y-96350000D02*
X116500000Y-94950000D01*
X105200000Y-92500000D02*
X111765000Y-92500000D01*
X102460000Y-105500000D02*
X102400000Y-105500000D01*
X114850000Y-96500000D02*
X114850000Y-95585000D01*
X111765000Y-92500000D02*
X113040000Y-93775000D01*
X114850000Y-95585000D02*
X113040000Y-93775000D01*
X98750000Y-109375000D02*
X98800000Y-109425000D01*
X102300000Y-105600000D02*
X102400000Y-105500000D01*
X102400000Y-105500000D02*
X100700000Y-105500000D01*
X102275000Y-107075000D02*
X102300000Y-107100000D01*
X110900000Y-102037500D02*
X109750000Y-103187500D01*
X97200000Y-103599999D02*
X97200000Y-99440000D01*
X105200000Y-92500000D02*
X105200000Y-99300000D01*
X108500000Y-101250000D02*
X108500000Y-101687499D01*
X114925000Y-96575000D02*
X114850000Y-96500000D01*
X102300000Y-107100000D02*
X102300000Y-105600000D01*
X111687500Y-103437500D02*
X111675000Y-103450000D01*
X120900000Y-99600000D02*
X120900000Y-98600000D01*
X109500000Y-108600000D02*
X109500000Y-110300000D01*
X111150000Y-101100000D02*
X114050000Y-101100000D01*
X114950000Y-96500000D02*
X114850000Y-96500000D01*
X107700000Y-108550000D02*
X107700000Y-110300000D01*
X105510000Y-108550000D02*
X105000000Y-108040000D01*
X110900000Y-101787499D02*
X110900000Y-102037500D01*
X111000000Y-101250000D02*
X111150000Y-101100000D01*
X107700000Y-108550000D02*
X105510000Y-108550000D01*
X108600000Y-101787499D02*
X108600000Y-102037500D01*
X97200000Y-109375000D02*
X98750000Y-109375000D01*
X105000000Y-108040000D02*
X102460000Y-105500000D01*
X118650000Y-96350000D02*
X117900000Y-96350000D01*
X120900000Y-98600000D02*
X118650000Y-96350000D01*
X100700000Y-107075000D02*
X102275000Y-107075000D01*
X114900000Y-98675000D02*
X114925000Y-98650000D01*
X121850000Y-115050000D02*
X121900000Y-115100000D01*
X114600000Y-96500000D02*
X114450000Y-96650000D01*
X100700000Y-107075000D02*
X100700000Y-105500000D01*
X121850000Y-113400000D02*
X121850000Y-115050000D01*
X121750000Y-113400000D02*
X121800000Y-113450000D01*
X100700000Y-105500000D02*
X100650000Y-105450000D01*
X111000000Y-101250000D02*
X111000000Y-101687499D01*
X108500000Y-101687499D02*
X108600000Y-101787499D01*
X110012500Y-103450000D02*
X109750000Y-103187500D01*
X114050000Y-101100000D02*
X114900000Y-100250000D01*
X116500000Y-94950000D02*
X114950000Y-96500000D01*
X108600000Y-102037500D02*
X109750000Y-103187500D01*
X114875000Y-98750000D02*
X114975000Y-98650000D01*
X107700000Y-108550000D02*
X109450000Y-108550000D01*
X111675000Y-103450000D02*
X110012500Y-103450000D01*
X98800000Y-109425000D02*
X98800000Y-110400000D01*
X114450000Y-96650000D02*
X111275000Y-96650000D01*
X121850000Y-113400000D02*
X121800000Y-113450000D01*
X114850000Y-96500000D02*
X114600000Y-96500000D01*
X114900000Y-100250000D02*
X114900000Y-98675000D01*
X109450000Y-108550000D02*
X109500000Y-108600000D01*
X105200000Y-99300000D02*
X104100000Y-100400000D01*
X114925000Y-98650000D02*
X114925000Y-96575000D01*
X98800000Y-110400000D02*
X99000000Y-110600000D01*
X111000000Y-101687499D02*
X110900000Y-101787499D01*
%TO.N,Net-(U1-MPPT)*%
X111350000Y-98650000D02*
X113275000Y-98650000D01*
X110000000Y-100000000D02*
X110000000Y-101250000D01*
X111350000Y-98650000D02*
X110000000Y-100000000D01*
X111525000Y-98700000D02*
X111475000Y-98750000D01*
%TO.N,Net-(JP2-A)*%
X116450000Y-104450000D02*
X119250000Y-107250000D01*
X119250000Y-107250000D02*
X119550000Y-107250000D01*
X116437500Y-104437500D02*
X116450000Y-104450000D01*
X116450000Y-102950000D02*
X116500000Y-102900000D01*
X116450000Y-104450000D02*
X116450000Y-102950000D01*
X111687500Y-104437500D02*
X116437500Y-104437500D01*
%TO.N,Net-(U1-SETPG)*%
X111687500Y-102437500D02*
X115312500Y-102437500D01*
X116500000Y-101250000D02*
X116500000Y-99725000D01*
X115312500Y-102437500D02*
X116500000Y-101250000D01*
%TO.N,Net-(U1-MINOP)*%
X109500000Y-105125000D02*
X109500000Y-106950000D01*
%TO.N,Net-(U1-VID)*%
X109000000Y-105600000D02*
X107700000Y-106900000D01*
X109000000Y-105125000D02*
X109000000Y-105600000D01*
%TO.N,Net-(U1-SETHYST)*%
X111687500Y-101937500D02*
X114624852Y-101937500D01*
X116500000Y-98075000D02*
X116500000Y-96600000D01*
X114624852Y-101937500D02*
X115725000Y-100837352D01*
X116500000Y-98075000D02*
X116500000Y-98475000D01*
X115725000Y-100837352D02*
X115725000Y-98850000D01*
X115725000Y-98850000D02*
X116500000Y-98075000D01*
%TO.N,Net-(JP1-A)*%
X118100000Y-103100000D02*
X118650000Y-102550000D01*
X111687500Y-102937500D02*
X113087500Y-102937500D01*
X118100000Y-104450000D02*
X118100000Y-103100000D01*
X118100000Y-104450000D02*
X119700000Y-104450000D01*
X113087500Y-102937500D02*
X113300000Y-103150000D01*
%TO.N,Net-(JP1-B)*%
X118650000Y-99950000D02*
X118650000Y-98000000D01*
%TO.N,Net-(J1-Pin_2)*%
X109725000Y-98625000D02*
X109700000Y-98650000D01*
X105750000Y-100312500D02*
X105750000Y-96600000D01*
X109725000Y-94550000D02*
X110500000Y-93775000D01*
X105750000Y-96600000D02*
X108575000Y-93775000D01*
X109725000Y-96650000D02*
X109725000Y-98625000D01*
X108575000Y-93775000D02*
X110500000Y-93775000D01*
X109700000Y-98650000D02*
X109500000Y-98850000D01*
X109500000Y-98850000D02*
X109500000Y-101250000D01*
X109725000Y-96650000D02*
X109725000Y-94550000D01*
X105800000Y-100362500D02*
X105750000Y-100312500D01*
%TO.N,Net-(JP1-C)*%
X118650000Y-101250000D02*
X120900000Y-101250000D01*
%TO.N,Net-(JP2-B)*%
X119550000Y-111750000D02*
X119550000Y-109850000D01*
%TO.N,/SETSD*%
X111687500Y-103937500D02*
X114212500Y-103937500D01*
X120200000Y-113400000D02*
X121850000Y-111750000D01*
X114212500Y-103937500D02*
X114750000Y-103400000D01*
X121750000Y-111750000D02*
X121850000Y-111750000D01*
X119550000Y-113400000D02*
X120200000Y-113400000D01*
X121850000Y-111750000D02*
X121850000Y-110200000D01*
X121850000Y-111750000D02*
X123000000Y-111750000D01*
%TO.N,Net-(JP2-C)*%
X119550000Y-108550000D02*
X121850000Y-108550000D01*
%TO.N,5V_EN*%
X98680002Y-104100001D02*
X99265002Y-104100001D01*
X99875000Y-107900000D02*
X100700000Y-108725000D01*
X99265002Y-104100001D02*
X99875000Y-104709999D01*
X100700000Y-108725000D02*
X100700000Y-111600000D01*
X99875000Y-104709999D02*
X99875000Y-107900000D01*
X100700000Y-111600000D02*
X101300000Y-112200000D01*
%TO.N,Net-(U2-FB)*%
X98800000Y-106225000D02*
X98825000Y-106200000D01*
X98825000Y-104744998D02*
X98680002Y-104600000D01*
X98825000Y-106200000D02*
X98825000Y-104744998D01*
X98800000Y-107775000D02*
X98800000Y-106225000D01*
%TO.N,+5V*%
X96425000Y-112025000D02*
X96600000Y-112200000D01*
X97175000Y-106200000D02*
X97175000Y-104625000D01*
X97200000Y-107825000D02*
X97200000Y-106225000D01*
X97200000Y-106225000D02*
X97175000Y-106200000D01*
X97200000Y-107825000D02*
X96425000Y-108600000D01*
X96425000Y-108600000D02*
X96425000Y-112025000D01*
X97175000Y-104625000D02*
X97200000Y-104600000D01*
%TO.N,Net-(J3-Pin_1)*%
X97200000Y-96900000D02*
X99525000Y-96900000D01*
X99525000Y-96900000D02*
X100425000Y-97800000D01*
%TO.N,+3.3V*%
X101250000Y-100900000D02*
X103050000Y-100900000D01*
X102300000Y-99850000D02*
X102300000Y-96850000D01*
X107812500Y-102937500D02*
X105087500Y-102937500D01*
X107812500Y-102937500D02*
X107800000Y-102950000D01*
X101250000Y-100900000D02*
X102300000Y-99850000D01*
X107812500Y-102437500D02*
X107812500Y-102937500D01*
X105087500Y-102937500D02*
X104100000Y-101950000D01*
X103050000Y-100900000D02*
X104100000Y-101950000D01*
%TO.N,~{SNSR_EN}*%
X100425000Y-95900000D02*
X101000000Y-95325000D01*
X101000000Y-95325000D02*
X101000000Y-92500000D01*
%TO.N,Net-(U1-SW)*%
X107812500Y-101937500D02*
X105800000Y-101937500D01*
%TO.N,Net-(J2-Pin_1)*%
X107812500Y-103937500D02*
X106562500Y-103937500D01*
X106562500Y-103937500D02*
X105000000Y-105500000D01*
%TO.N,VSS*%
X102912500Y-103437500D02*
X107812500Y-103437500D01*
X100700000Y-103950000D02*
X100650000Y-103900000D01*
X102400000Y-103950000D02*
X100700000Y-103950000D01*
X102400000Y-103950000D02*
X102912500Y-103437500D01*
X100349999Y-103599999D02*
X100650000Y-103900000D01*
X116300000Y-108050000D02*
X116300000Y-110700000D01*
X110500000Y-105125000D02*
X111000000Y-105125000D01*
X111000000Y-105125000D02*
X113375000Y-105125000D01*
X98680002Y-103599999D02*
X100349999Y-103599999D01*
X116300000Y-110700000D02*
X116000000Y-111000000D01*
X95500000Y-105675000D02*
X95500000Y-107000000D01*
X98680002Y-102319998D02*
X98700000Y-102300000D01*
X113375000Y-105125000D02*
X116300000Y-108050000D01*
X98680002Y-103599999D02*
X98680002Y-102319998D01*
%TO.N,Net-(U1-CBP)*%
X111048114Y-100250000D02*
X113350000Y-100250000D01*
X110500000Y-100798114D02*
X111048114Y-100250000D01*
X110500000Y-101250000D02*
X110500000Y-100798114D01*
%TO.N,~{CHRGR_EN}*%
X110000000Y-105650000D02*
X110000000Y-105125000D01*
X112400000Y-108050000D02*
X110000000Y-105650000D01*
%TO.N,LLD*%
X109000000Y-101250000D02*
X109000000Y-99850000D01*
X109000000Y-99850000D02*
X106900000Y-97750000D01*
%TO.N,Net-(U2-SW)*%
X95400001Y-104100001D02*
X95400000Y-104100000D01*
X95500001Y-104100001D02*
X95500000Y-104100000D01*
X97200000Y-104100001D02*
X95500001Y-104100001D01*
%TD*%
%TA.AperFunction,Conductor*%
%TO.N,GND*%
G36*
X122943039Y-88019685D02*
G01*
X122988794Y-88072489D01*
X123000000Y-88124000D01*
X123000000Y-107998568D01*
X122980315Y-108065607D01*
X122927511Y-108111362D01*
X122858353Y-108121306D01*
X122794797Y-108092281D01*
X122769883Y-108062718D01*
X122733254Y-108002127D01*
X122680472Y-107914815D01*
X122680470Y-107914813D01*
X122680469Y-107914811D01*
X122560188Y-107794530D01*
X122545032Y-107785368D01*
X122414606Y-107706522D01*
X122252196Y-107655914D01*
X122252194Y-107655913D01*
X122252192Y-107655913D01*
X122201038Y-107651265D01*
X122181616Y-107649500D01*
X121518384Y-107649500D01*
X121499145Y-107651248D01*
X121447807Y-107655913D01*
X121285393Y-107706522D01*
X121139811Y-107794530D01*
X121139810Y-107794531D01*
X121021161Y-107913181D01*
X120959838Y-107946666D01*
X120933480Y-107949500D01*
X120922244Y-107949500D01*
X120855205Y-107929815D01*
X120809450Y-107877011D01*
X120798954Y-107812247D01*
X120800500Y-107797873D01*
X120800499Y-106702128D01*
X120794947Y-106650478D01*
X120794091Y-106642516D01*
X120743797Y-106507671D01*
X120743793Y-106507664D01*
X120657547Y-106392455D01*
X120657544Y-106392452D01*
X120542335Y-106306206D01*
X120542328Y-106306202D01*
X120407482Y-106255908D01*
X120407483Y-106255908D01*
X120347883Y-106249501D01*
X120347881Y-106249500D01*
X120347873Y-106249500D01*
X120347865Y-106249500D01*
X119150097Y-106249500D01*
X119083058Y-106229815D01*
X119062416Y-106213181D01*
X118451108Y-105601873D01*
X118417623Y-105540550D01*
X118422607Y-105470858D01*
X118464479Y-105414925D01*
X118501893Y-105395809D01*
X118589606Y-105368478D01*
X118735185Y-105280472D01*
X118855472Y-105160185D01*
X118885598Y-105110349D01*
X118937126Y-105063162D01*
X118991715Y-105050500D01*
X119117588Y-105050500D01*
X119184627Y-105070185D01*
X119194903Y-105077555D01*
X119197736Y-105079814D01*
X119197738Y-105079816D01*
X119350478Y-105175789D01*
X119520745Y-105235368D01*
X119520750Y-105235369D01*
X119699996Y-105255565D01*
X119700000Y-105255565D01*
X119700004Y-105255565D01*
X119879249Y-105235369D01*
X119879252Y-105235368D01*
X119879255Y-105235368D01*
X120049522Y-105175789D01*
X120202262Y-105079816D01*
X120329816Y-104952262D01*
X120425789Y-104799522D01*
X120485368Y-104629255D01*
X120485369Y-104629249D01*
X120505565Y-104450003D01*
X120505565Y-104449996D01*
X120485369Y-104270750D01*
X120485368Y-104270745D01*
X120467009Y-104218278D01*
X120425789Y-104100478D01*
X120422322Y-104094961D01*
X120329815Y-103947737D01*
X120202262Y-103820184D01*
X120049523Y-103724211D01*
X119879254Y-103664631D01*
X119879250Y-103664630D01*
X119785817Y-103654103D01*
X119721403Y-103627036D01*
X119681848Y-103569441D01*
X119679711Y-103499604D01*
X119715670Y-103439698D01*
X119725373Y-103431630D01*
X119757546Y-103407546D01*
X119843796Y-103292331D01*
X119894091Y-103157483D01*
X119900500Y-103097873D01*
X119900499Y-102015518D01*
X119920184Y-101948480D01*
X119972987Y-101902725D01*
X120042146Y-101892781D01*
X120105702Y-101921806D01*
X120112180Y-101927838D01*
X120189811Y-102005469D01*
X120189813Y-102005470D01*
X120189815Y-102005472D01*
X120335394Y-102093478D01*
X120497804Y-102144086D01*
X120568384Y-102150500D01*
X120568387Y-102150500D01*
X121231613Y-102150500D01*
X121231616Y-102150500D01*
X121302196Y-102144086D01*
X121464606Y-102093478D01*
X121610185Y-102005472D01*
X121730472Y-101885185D01*
X121818478Y-101739606D01*
X121869086Y-101577196D01*
X121875500Y-101506616D01*
X121875500Y-100993384D01*
X121869086Y-100922804D01*
X121818478Y-100760394D01*
X121730472Y-100614815D01*
X121730470Y-100614813D01*
X121730469Y-100614811D01*
X121627984Y-100512326D01*
X121594499Y-100451003D01*
X121599483Y-100381311D01*
X121627985Y-100336963D01*
X121730071Y-100234878D01*
X121730072Y-100234877D01*
X121818019Y-100089395D01*
X121868590Y-99927106D01*
X121875000Y-99856572D01*
X121875000Y-99850000D01*
X120774000Y-99850000D01*
X120706961Y-99830315D01*
X120661206Y-99777511D01*
X120650000Y-99726000D01*
X120650000Y-99350000D01*
X121150000Y-99350000D01*
X121874999Y-99350000D01*
X121874999Y-99343417D01*
X121868591Y-99272897D01*
X121868590Y-99272892D01*
X121818018Y-99110603D01*
X121730072Y-98965122D01*
X121609877Y-98844927D01*
X121464395Y-98756980D01*
X121464396Y-98756980D01*
X121302105Y-98706409D01*
X121302106Y-98706409D01*
X121231572Y-98700000D01*
X121150000Y-98700000D01*
X121150000Y-99350000D01*
X120650000Y-99350000D01*
X120650000Y-98700000D01*
X120649999Y-98699999D01*
X120568417Y-98700000D01*
X120497897Y-98706408D01*
X120497892Y-98706409D01*
X120335603Y-98756981D01*
X120190122Y-98844927D01*
X120069928Y-98965121D01*
X120069925Y-98965125D01*
X119982936Y-99109021D01*
X119931408Y-99156208D01*
X119862549Y-99168046D01*
X119798220Y-99140777D01*
X119777556Y-99119185D01*
X119757546Y-99092454D01*
X119757544Y-99092452D01*
X119757543Y-99092451D01*
X119642335Y-99006206D01*
X119642328Y-99006202D01*
X119507482Y-98955908D01*
X119507484Y-98955908D01*
X119451195Y-98949857D01*
X119386644Y-98923119D01*
X119346796Y-98865727D01*
X119344303Y-98795901D01*
X119376768Y-98738888D01*
X119480472Y-98635185D01*
X119568478Y-98489606D01*
X119619086Y-98327196D01*
X119625500Y-98256616D01*
X119625500Y-97743384D01*
X119619086Y-97672804D01*
X119568478Y-97510394D01*
X119480472Y-97364815D01*
X119480470Y-97364813D01*
X119480469Y-97364811D01*
X119377984Y-97262326D01*
X119344499Y-97201003D01*
X119349483Y-97131311D01*
X119377985Y-97086963D01*
X119480071Y-96984878D01*
X119480072Y-96984877D01*
X119568019Y-96839395D01*
X119618590Y-96677106D01*
X119625000Y-96606572D01*
X119625000Y-96600000D01*
X118524000Y-96600000D01*
X118456961Y-96580315D01*
X118411206Y-96527511D01*
X118400000Y-96476000D01*
X118400000Y-96100000D01*
X118900000Y-96100000D01*
X119624999Y-96100000D01*
X119624999Y-96093417D01*
X119618591Y-96022897D01*
X119618590Y-96022892D01*
X119568018Y-95860603D01*
X119480072Y-95715122D01*
X119359877Y-95594927D01*
X119214395Y-95506980D01*
X119214396Y-95506980D01*
X119052105Y-95456409D01*
X119052106Y-95456409D01*
X118981572Y-95450000D01*
X118900000Y-95450000D01*
X118900000Y-96100000D01*
X118400000Y-96100000D01*
X118400000Y-95450000D01*
X118399999Y-95449999D01*
X118318417Y-95450000D01*
X118247897Y-95456408D01*
X118247892Y-95456409D01*
X118085603Y-95506981D01*
X117940122Y-95594927D01*
X117819927Y-95715122D01*
X117731980Y-95860604D01*
X117681409Y-96022893D01*
X117675000Y-96093427D01*
X117675000Y-96118871D01*
X117655315Y-96185910D01*
X117602511Y-96231665D01*
X117533353Y-96241609D01*
X117469797Y-96212584D01*
X117432615Y-96155762D01*
X117418478Y-96110394D01*
X117330472Y-95964815D01*
X117330470Y-95964813D01*
X117330469Y-95964811D01*
X117227984Y-95862326D01*
X117194499Y-95801003D01*
X117199483Y-95731311D01*
X117227985Y-95686963D01*
X117330071Y-95584878D01*
X117330072Y-95584877D01*
X117418019Y-95439395D01*
X117468590Y-95277106D01*
X117475000Y-95206572D01*
X117475000Y-95200000D01*
X115525001Y-95200000D01*
X115525001Y-95206582D01*
X115531408Y-95277102D01*
X115531409Y-95277107D01*
X115581981Y-95439396D01*
X115669927Y-95584877D01*
X115772015Y-95686965D01*
X115805500Y-95748288D01*
X115800516Y-95817980D01*
X115772015Y-95862327D01*
X115669531Y-95964810D01*
X115669530Y-95964811D01*
X115581522Y-96110393D01*
X115530913Y-96272807D01*
X115524500Y-96343386D01*
X115524500Y-96856613D01*
X115530913Y-96927192D01*
X115530913Y-96927194D01*
X115530914Y-96927196D01*
X115581522Y-97089606D01*
X115653515Y-97208697D01*
X115669530Y-97235188D01*
X115684161Y-97249819D01*
X115717646Y-97311142D01*
X115712662Y-97380834D01*
X115684161Y-97425181D01*
X115669531Y-97439810D01*
X115669530Y-97439811D01*
X115581522Y-97585393D01*
X115561986Y-97648090D01*
X115523248Y-97706238D01*
X115459223Y-97734212D01*
X115406710Y-97729586D01*
X115252101Y-97681408D01*
X115181572Y-97675000D01*
X115175000Y-97675000D01*
X115175000Y-98570429D01*
X115167080Y-98610245D01*
X115167527Y-98610365D01*
X115165700Y-98617180D01*
X115165562Y-98617878D01*
X115165425Y-98618207D01*
X115160875Y-98635188D01*
X115124499Y-98770943D01*
X115124499Y-98770945D01*
X115124499Y-98939046D01*
X115124500Y-98939059D01*
X115124500Y-100376000D01*
X115104815Y-100443039D01*
X115052011Y-100488794D01*
X115000500Y-100500000D01*
X114774000Y-100500000D01*
X114706961Y-100480315D01*
X114661206Y-100427511D01*
X114650000Y-100376000D01*
X114650000Y-99308362D01*
X114669685Y-99241323D01*
X114675000Y-99234727D01*
X114675000Y-97675000D01*
X114674999Y-97674999D01*
X114668436Y-97675000D01*
X114668417Y-97675001D01*
X114597897Y-97681408D01*
X114597892Y-97681409D01*
X114435603Y-97731981D01*
X114290122Y-97819927D01*
X114290121Y-97819928D01*
X114188035Y-97922015D01*
X114126712Y-97955500D01*
X114057020Y-97950516D01*
X114012673Y-97922015D01*
X113910188Y-97819530D01*
X113908292Y-97818384D01*
X113764606Y-97731522D01*
X113602196Y-97680914D01*
X113602194Y-97680913D01*
X113602192Y-97680913D01*
X113552778Y-97676423D01*
X113531616Y-97674500D01*
X113018384Y-97674500D01*
X112999145Y-97676248D01*
X112947807Y-97680913D01*
X112785393Y-97731522D01*
X112639811Y-97819530D01*
X112519530Y-97939811D01*
X112489402Y-97989650D01*
X112437874Y-98036838D01*
X112383285Y-98049500D01*
X112241715Y-98049500D01*
X112174676Y-98029815D01*
X112135598Y-97989650D01*
X112105472Y-97939815D01*
X112105470Y-97939813D01*
X112105469Y-97939811D01*
X111985188Y-97819530D01*
X111985185Y-97819528D01*
X111858492Y-97742939D01*
X111811305Y-97691412D01*
X111799467Y-97622552D01*
X111826736Y-97558224D01*
X111857546Y-97531284D01*
X111952733Y-97472571D01*
X112072572Y-97352732D01*
X112072575Y-97352728D01*
X112161542Y-97208492D01*
X112161547Y-97208481D01*
X112214855Y-97047606D01*
X112224999Y-96948322D01*
X112225000Y-96948309D01*
X112225000Y-96900000D01*
X111149000Y-96900000D01*
X111081961Y-96880315D01*
X111036206Y-96827511D01*
X111025000Y-96776000D01*
X111025000Y-96400000D01*
X111525000Y-96400000D01*
X112224999Y-96400000D01*
X112224999Y-96351692D01*
X112224998Y-96351677D01*
X112214855Y-96252392D01*
X112161547Y-96091518D01*
X112161542Y-96091507D01*
X112072575Y-95947271D01*
X112072572Y-95947267D01*
X111952732Y-95827427D01*
X111952728Y-95827424D01*
X111808492Y-95738457D01*
X111808481Y-95738452D01*
X111647606Y-95685144D01*
X111548322Y-95675000D01*
X111525000Y-95675000D01*
X111525000Y-96400000D01*
X111025000Y-96400000D01*
X111025000Y-95674999D01*
X111001693Y-95675000D01*
X111001674Y-95675001D01*
X110902392Y-95685144D01*
X110741518Y-95738452D01*
X110741507Y-95738457D01*
X110597271Y-95827424D01*
X110597264Y-95827430D01*
X110588028Y-95836665D01*
X110526703Y-95870146D01*
X110457011Y-95865157D01*
X110412672Y-95836659D01*
X110403047Y-95827034D01*
X110384400Y-95815532D01*
X110337677Y-95763582D01*
X110325500Y-95709995D01*
X110325500Y-95250714D01*
X110345185Y-95183675D01*
X110397989Y-95137920D01*
X110460308Y-95127186D01*
X110500000Y-95130659D01*
X110500001Y-95130659D01*
X110564681Y-95125000D01*
X110735408Y-95110063D01*
X110963663Y-95048903D01*
X111177830Y-94949035D01*
X111371401Y-94813495D01*
X111493717Y-94691178D01*
X111555036Y-94657696D01*
X111624728Y-94662680D01*
X111680662Y-94704551D01*
X111697577Y-94735528D01*
X111746646Y-94867088D01*
X111746649Y-94867093D01*
X111832809Y-94982187D01*
X111832812Y-94982190D01*
X111947906Y-95068350D01*
X111947913Y-95068354D01*
X112082620Y-95118596D01*
X112082627Y-95118598D01*
X112142155Y-95124999D01*
X112142172Y-95125000D01*
X112790000Y-95125000D01*
X112790000Y-94208012D01*
X112847007Y-94240925D01*
X112974174Y-94275000D01*
X113105826Y-94275000D01*
X113232993Y-94240925D01*
X113290000Y-94208012D01*
X113290000Y-95125000D01*
X113937828Y-95125000D01*
X113937844Y-95124999D01*
X113997372Y-95118598D01*
X113997379Y-95118596D01*
X114132086Y-95068354D01*
X114132093Y-95068350D01*
X114247187Y-94982190D01*
X114247190Y-94982187D01*
X114333350Y-94867093D01*
X114333354Y-94867086D01*
X114383596Y-94732379D01*
X114383598Y-94732372D01*
X114387786Y-94693427D01*
X115525000Y-94693427D01*
X115525000Y-94700000D01*
X116250000Y-94700000D01*
X116750000Y-94700000D01*
X117474999Y-94700000D01*
X117474999Y-94693417D01*
X117468591Y-94622897D01*
X117468590Y-94622892D01*
X117418018Y-94460603D01*
X117330072Y-94315122D01*
X117209877Y-94194927D01*
X117064395Y-94106980D01*
X117064396Y-94106980D01*
X116902105Y-94056409D01*
X116902106Y-94056409D01*
X116831572Y-94050000D01*
X116750000Y-94050000D01*
X116750000Y-94700000D01*
X116250000Y-94700000D01*
X116250000Y-94050000D01*
X116249999Y-94049999D01*
X116168417Y-94050000D01*
X116097897Y-94056408D01*
X116097892Y-94056409D01*
X115935603Y-94106981D01*
X115790122Y-94194927D01*
X115669927Y-94315122D01*
X115581980Y-94460604D01*
X115531409Y-94622893D01*
X115525000Y-94693427D01*
X114387786Y-94693427D01*
X114389999Y-94672844D01*
X114390000Y-94672827D01*
X114390000Y-94025000D01*
X113473012Y-94025000D01*
X113505925Y-93967993D01*
X113540000Y-93840826D01*
X113540000Y-93709174D01*
X113505925Y-93582007D01*
X113473012Y-93525000D01*
X114390000Y-93525000D01*
X114390000Y-92877172D01*
X114389999Y-92877155D01*
X114383598Y-92817627D01*
X114383596Y-92817620D01*
X114333354Y-92682913D01*
X114333350Y-92682906D01*
X114247190Y-92567812D01*
X114247187Y-92567809D01*
X114132093Y-92481649D01*
X114132086Y-92481645D01*
X113997379Y-92431403D01*
X113997372Y-92431401D01*
X113937844Y-92425000D01*
X113290000Y-92425000D01*
X113290000Y-93341988D01*
X113232993Y-93309075D01*
X113105826Y-93275000D01*
X112974174Y-93275000D01*
X112847007Y-93309075D01*
X112790000Y-93341988D01*
X112790000Y-92425000D01*
X112142155Y-92425000D01*
X112082627Y-92431401D01*
X112082620Y-92431403D01*
X111947913Y-92481645D01*
X111947906Y-92481649D01*
X111832812Y-92567809D01*
X111832809Y-92567812D01*
X111746649Y-92682906D01*
X111746645Y-92682913D01*
X111697578Y-92814470D01*
X111655707Y-92870404D01*
X111590242Y-92894821D01*
X111521969Y-92879969D01*
X111493715Y-92858819D01*
X111441903Y-92807007D01*
X111371401Y-92736505D01*
X111371397Y-92736502D01*
X111371396Y-92736501D01*
X111177834Y-92600967D01*
X111177830Y-92600965D01*
X111102474Y-92565826D01*
X110963663Y-92501097D01*
X110963659Y-92501096D01*
X110963655Y-92501094D01*
X110735413Y-92439938D01*
X110735403Y-92439936D01*
X110500001Y-92419341D01*
X110499999Y-92419341D01*
X110264596Y-92439936D01*
X110264586Y-92439938D01*
X110036344Y-92501094D01*
X110036335Y-92501098D01*
X109822171Y-92600964D01*
X109822169Y-92600965D01*
X109628597Y-92736505D01*
X109461506Y-92903596D01*
X109325965Y-93097170D01*
X109325962Y-93097175D01*
X109323289Y-93102909D01*
X109277115Y-93155346D01*
X109210909Y-93174500D01*
X108654057Y-93174500D01*
X108495942Y-93174500D01*
X108343215Y-93215423D01*
X108343214Y-93215423D01*
X108343212Y-93215424D01*
X108343209Y-93215425D01*
X108293096Y-93244359D01*
X108293095Y-93244360D01*
X108249689Y-93269420D01*
X108206285Y-93294479D01*
X108206282Y-93294481D01*
X105269479Y-96231284D01*
X105245509Y-96272804D01*
X105230096Y-96299500D01*
X105190423Y-96368215D01*
X105149499Y-96520943D01*
X105149499Y-96520945D01*
X105149499Y-96689046D01*
X105149500Y-96689059D01*
X105149500Y-99472655D01*
X105129815Y-99539694D01*
X105099139Y-99569813D01*
X105100270Y-99571243D01*
X105094605Y-99575722D01*
X105022997Y-99647330D01*
X104961674Y-99680815D01*
X104891982Y-99675831D01*
X104847635Y-99647330D01*
X104802732Y-99602427D01*
X104802728Y-99602424D01*
X104658492Y-99513457D01*
X104658481Y-99513452D01*
X104497606Y-99460144D01*
X104398322Y-99450000D01*
X104350000Y-99450000D01*
X104350000Y-100526000D01*
X104330315Y-100593039D01*
X104277511Y-100638794D01*
X104226000Y-100650000D01*
X103974000Y-100650000D01*
X103906961Y-100630315D01*
X103861206Y-100577511D01*
X103850000Y-100526000D01*
X103850000Y-99450000D01*
X103849999Y-99449999D01*
X103801693Y-99450000D01*
X103801675Y-99450001D01*
X103702392Y-99460144D01*
X103541518Y-99513452D01*
X103541507Y-99513457D01*
X103397271Y-99602424D01*
X103397267Y-99602427D01*
X103277427Y-99722267D01*
X103277424Y-99722271D01*
X103188457Y-99866507D01*
X103188452Y-99866518D01*
X103135144Y-100027393D01*
X103125000Y-100126677D01*
X103125000Y-100175499D01*
X103105315Y-100242538D01*
X103052511Y-100288293D01*
X103001000Y-100299499D01*
X102963347Y-100299499D01*
X102963331Y-100299500D01*
X102948653Y-100299500D01*
X102881614Y-100279815D01*
X102835859Y-100227011D01*
X102825915Y-100157853D01*
X102841266Y-100113500D01*
X102842364Y-100111597D01*
X102859577Y-100081785D01*
X102900500Y-99929058D01*
X102900500Y-99770943D01*
X102900500Y-99770942D01*
X102900500Y-97766722D01*
X102920185Y-97699683D01*
X102972989Y-97653928D01*
X102989905Y-97647646D01*
X103076277Y-97622552D01*
X103147898Y-97601744D01*
X103289365Y-97518081D01*
X103405581Y-97401865D01*
X103489244Y-97260398D01*
X103535098Y-97102569D01*
X103538000Y-97065694D01*
X103538000Y-96634306D01*
X103535098Y-96597431D01*
X103530125Y-96580315D01*
X103489245Y-96439606D01*
X103489244Y-96439603D01*
X103489244Y-96439602D01*
X103405581Y-96298135D01*
X103405579Y-96298133D01*
X103405576Y-96298129D01*
X103289370Y-96181923D01*
X103289362Y-96181917D01*
X103183786Y-96119480D01*
X103147898Y-96098256D01*
X103147897Y-96098255D01*
X103147896Y-96098255D01*
X103147893Y-96098254D01*
X102990073Y-96052402D01*
X102990067Y-96052401D01*
X102953201Y-96049500D01*
X102953194Y-96049500D01*
X101787000Y-96049500D01*
X101719961Y-96029815D01*
X101674206Y-95977011D01*
X101663000Y-95925500D01*
X101663000Y-95684313D01*
X101662999Y-95684298D01*
X101662267Y-95675001D01*
X101660098Y-95647431D01*
X101648120Y-95606204D01*
X101614245Y-95489606D01*
X101614244Y-95489603D01*
X101614244Y-95489602D01*
X101614241Y-95489597D01*
X101611147Y-95482446D01*
X101612970Y-95481656D01*
X101598363Y-95424075D01*
X101600156Y-95412210D01*
X101599440Y-95412116D01*
X101600501Y-95404057D01*
X101600501Y-95238347D01*
X101600500Y-95238329D01*
X101600500Y-93974499D01*
X101620185Y-93907460D01*
X101672989Y-93861705D01*
X101724500Y-93850499D01*
X101897871Y-93850499D01*
X101897872Y-93850499D01*
X101957483Y-93844091D01*
X102092331Y-93793796D01*
X102207546Y-93707546D01*
X102293796Y-93592331D01*
X102344091Y-93457483D01*
X102350500Y-93397873D01*
X102350499Y-91602155D01*
X103850000Y-91602155D01*
X103850000Y-92250000D01*
X104766988Y-92250000D01*
X104734075Y-92307007D01*
X104700000Y-92434174D01*
X104700000Y-92565826D01*
X104734075Y-92692993D01*
X104766988Y-92750000D01*
X103850000Y-92750000D01*
X103850000Y-93397844D01*
X103856401Y-93457372D01*
X103856403Y-93457379D01*
X103906645Y-93592086D01*
X103906649Y-93592093D01*
X103992809Y-93707187D01*
X103992812Y-93707190D01*
X104107906Y-93793350D01*
X104107913Y-93793354D01*
X104242620Y-93843596D01*
X104242627Y-93843598D01*
X104302155Y-93849999D01*
X104302172Y-93850000D01*
X104950000Y-93850000D01*
X104950000Y-92933012D01*
X105007007Y-92965925D01*
X105134174Y-93000000D01*
X105265826Y-93000000D01*
X105392993Y-92965925D01*
X105450000Y-92933012D01*
X105450000Y-93850000D01*
X106097828Y-93850000D01*
X106097844Y-93849999D01*
X106157372Y-93843598D01*
X106157379Y-93843596D01*
X106292086Y-93793354D01*
X106292093Y-93793350D01*
X106407187Y-93707190D01*
X106407190Y-93707187D01*
X106493350Y-93592093D01*
X106493354Y-93592086D01*
X106543596Y-93457379D01*
X106543598Y-93457372D01*
X106549999Y-93397844D01*
X106550000Y-93397827D01*
X106550000Y-92750000D01*
X105633012Y-92750000D01*
X105665925Y-92692993D01*
X105700000Y-92565826D01*
X105700000Y-92434174D01*
X105665925Y-92307007D01*
X105633012Y-92250000D01*
X106550000Y-92250000D01*
X106550000Y-91602172D01*
X106549999Y-91602155D01*
X106543598Y-91542627D01*
X106543596Y-91542620D01*
X106493354Y-91407913D01*
X106493350Y-91407906D01*
X106407190Y-91292812D01*
X106407187Y-91292809D01*
X106292093Y-91206649D01*
X106292086Y-91206645D01*
X106157379Y-91156403D01*
X106157372Y-91156401D01*
X106097844Y-91150000D01*
X105450000Y-91150000D01*
X105450000Y-92066988D01*
X105392993Y-92034075D01*
X105265826Y-92000000D01*
X105134174Y-92000000D01*
X105007007Y-92034075D01*
X104950000Y-92066988D01*
X104950000Y-91150000D01*
X104302155Y-91150000D01*
X104242627Y-91156401D01*
X104242620Y-91156403D01*
X104107913Y-91206645D01*
X104107906Y-91206649D01*
X103992812Y-91292809D01*
X103992809Y-91292812D01*
X103906649Y-91407906D01*
X103906645Y-91407913D01*
X103856403Y-91542620D01*
X103856401Y-91542627D01*
X103850000Y-91602155D01*
X102350499Y-91602155D01*
X102350499Y-91602128D01*
X102344091Y-91542517D01*
X102293884Y-91407906D01*
X102293797Y-91407671D01*
X102293793Y-91407664D01*
X102207547Y-91292455D01*
X102207544Y-91292452D01*
X102092335Y-91206206D01*
X102092328Y-91206202D01*
X101957482Y-91155908D01*
X101957483Y-91155908D01*
X101897883Y-91149501D01*
X101897881Y-91149500D01*
X101897873Y-91149500D01*
X101897864Y-91149500D01*
X100102129Y-91149500D01*
X100102123Y-91149501D01*
X100042516Y-91155908D01*
X99907671Y-91206202D01*
X99907664Y-91206206D01*
X99792455Y-91292452D01*
X99792452Y-91292455D01*
X99706206Y-91407664D01*
X99706202Y-91407671D01*
X99655908Y-91542517D01*
X99649501Y-91602116D01*
X99649501Y-91602123D01*
X99649500Y-91602135D01*
X99649500Y-93397870D01*
X99649501Y-93397876D01*
X99655908Y-93457483D01*
X99706202Y-93592328D01*
X99706206Y-93592335D01*
X99792452Y-93707544D01*
X99792455Y-93707547D01*
X99907664Y-93793793D01*
X99907671Y-93793797D01*
X99952618Y-93810561D01*
X100042517Y-93844091D01*
X100102127Y-93850500D01*
X100275500Y-93850499D01*
X100342539Y-93870183D01*
X100388294Y-93922987D01*
X100399500Y-93974499D01*
X100399500Y-94975500D01*
X100379815Y-95042539D01*
X100327011Y-95088294D01*
X100275500Y-95099500D01*
X99771798Y-95099500D01*
X99734932Y-95102401D01*
X99734926Y-95102402D01*
X99577106Y-95148254D01*
X99577103Y-95148255D01*
X99435637Y-95231917D01*
X99435629Y-95231923D01*
X99319423Y-95348129D01*
X99319417Y-95348137D01*
X99235755Y-95489603D01*
X99235754Y-95489606D01*
X99189902Y-95647426D01*
X99189901Y-95647432D01*
X99187000Y-95684298D01*
X99187000Y-96115701D01*
X99189901Y-96152568D01*
X99190020Y-96153215D01*
X99189981Y-96153580D01*
X99190399Y-96158886D01*
X99189414Y-96158963D01*
X99182704Y-96222701D01*
X99138983Y-96277201D01*
X99072737Y-96299411D01*
X99068039Y-96299500D01*
X98674499Y-96299500D01*
X98607460Y-96279815D01*
X98561705Y-96227011D01*
X98550499Y-96175500D01*
X98550499Y-96002129D01*
X98550498Y-96002123D01*
X98550497Y-96002116D01*
X98544091Y-95942517D01*
X98517098Y-95870146D01*
X98493797Y-95807671D01*
X98493793Y-95807664D01*
X98407547Y-95692455D01*
X98407544Y-95692452D01*
X98292335Y-95606206D01*
X98292328Y-95606202D01*
X98157482Y-95555908D01*
X98157483Y-95555908D01*
X98097883Y-95549501D01*
X98097881Y-95549500D01*
X98097873Y-95549500D01*
X98097864Y-95549500D01*
X96302129Y-95549500D01*
X96302123Y-95549501D01*
X96242516Y-95555908D01*
X96107671Y-95606202D01*
X96107664Y-95606206D01*
X95992455Y-95692452D01*
X95992452Y-95692455D01*
X95906206Y-95807664D01*
X95906202Y-95807671D01*
X95855908Y-95942517D01*
X95852200Y-95977011D01*
X95849501Y-96002123D01*
X95849500Y-96002135D01*
X95849500Y-97797870D01*
X95849501Y-97797876D01*
X95855908Y-97857483D01*
X95906202Y-97992328D01*
X95906206Y-97992335D01*
X95992452Y-98107544D01*
X95992455Y-98107547D01*
X96107664Y-98193793D01*
X96107671Y-98193797D01*
X96152168Y-98210393D01*
X96239598Y-98243002D01*
X96295531Y-98284873D01*
X96319949Y-98350337D01*
X96305098Y-98418610D01*
X96283947Y-98446865D01*
X96161886Y-98568926D01*
X96026400Y-98762420D01*
X96026399Y-98762422D01*
X95926570Y-98976507D01*
X95926567Y-98976513D01*
X95869364Y-99189999D01*
X95869364Y-99190000D01*
X96766988Y-99190000D01*
X96734075Y-99247007D01*
X96700000Y-99374174D01*
X96700000Y-99505826D01*
X96734075Y-99632993D01*
X96766988Y-99690000D01*
X95869364Y-99690000D01*
X95926567Y-99903486D01*
X95926570Y-99903492D01*
X96026399Y-100117578D01*
X96161894Y-100311082D01*
X96328917Y-100478105D01*
X96522421Y-100613600D01*
X96736507Y-100713429D01*
X96736516Y-100713433D01*
X96950000Y-100770634D01*
X96950000Y-99873012D01*
X97007007Y-99905925D01*
X97134174Y-99940000D01*
X97265826Y-99940000D01*
X97392993Y-99905925D01*
X97450000Y-99873012D01*
X97450000Y-100770633D01*
X97663483Y-100713433D01*
X97663492Y-100713429D01*
X97877578Y-100613600D01*
X98071082Y-100478105D01*
X98238105Y-100311082D01*
X98373600Y-100117578D01*
X98473429Y-99903492D01*
X98473432Y-99903486D01*
X98530636Y-99690000D01*
X97633012Y-99690000D01*
X97665925Y-99632993D01*
X97700000Y-99505826D01*
X97700000Y-99374174D01*
X97665925Y-99247007D01*
X97633012Y-99190000D01*
X98530636Y-99190000D01*
X98530635Y-99189999D01*
X98473432Y-98976513D01*
X98473429Y-98976507D01*
X98373600Y-98762422D01*
X98373599Y-98762420D01*
X98238113Y-98568926D01*
X98238108Y-98568920D01*
X98116053Y-98446865D01*
X98082568Y-98385542D01*
X98087552Y-98315850D01*
X98129424Y-98259917D01*
X98160400Y-98243002D01*
X98292331Y-98193796D01*
X98407546Y-98107546D01*
X98493796Y-97992331D01*
X98544091Y-97857483D01*
X98550500Y-97797873D01*
X98550500Y-97624500D01*
X98570185Y-97557461D01*
X98622989Y-97511706D01*
X98674500Y-97500500D01*
X99063000Y-97500500D01*
X99130039Y-97520185D01*
X99175794Y-97572989D01*
X99187000Y-97624500D01*
X99187000Y-98015701D01*
X99189901Y-98052567D01*
X99189902Y-98052573D01*
X99235754Y-98210393D01*
X99235755Y-98210396D01*
X99319417Y-98351862D01*
X99319423Y-98351870D01*
X99435629Y-98468076D01*
X99435633Y-98468079D01*
X99435635Y-98468081D01*
X99577102Y-98551744D01*
X99618724Y-98563836D01*
X99734926Y-98597597D01*
X99734929Y-98597597D01*
X99734931Y-98597598D01*
X99771806Y-98600500D01*
X99771814Y-98600500D01*
X101078186Y-98600500D01*
X101078194Y-98600500D01*
X101115069Y-98597598D01*
X101115071Y-98597597D01*
X101115073Y-98597597D01*
X101208584Y-98570429D01*
X101272898Y-98551744D01*
X101414365Y-98468081D01*
X101435581Y-98446865D01*
X101487819Y-98394628D01*
X101549142Y-98361143D01*
X101618834Y-98366127D01*
X101674767Y-98407999D01*
X101699184Y-98473463D01*
X101699500Y-98482309D01*
X101699500Y-99425500D01*
X101679815Y-99492539D01*
X101627011Y-99538294D01*
X101575500Y-99549500D01*
X100352129Y-99549500D01*
X100352123Y-99549501D01*
X100292516Y-99555908D01*
X100157671Y-99606202D01*
X100157664Y-99606206D01*
X100042455Y-99692452D01*
X100042452Y-99692455D01*
X99956206Y-99807664D01*
X99956202Y-99807671D01*
X99905908Y-99942517D01*
X99899501Y-100002116D01*
X99899500Y-100002135D01*
X99899500Y-101797870D01*
X99899501Y-101797876D01*
X99905908Y-101857483D01*
X99956202Y-101992328D01*
X99956206Y-101992335D01*
X100042452Y-102107544D01*
X100042455Y-102107547D01*
X100157664Y-102193793D01*
X100157671Y-102193797D01*
X100292517Y-102244091D01*
X100292516Y-102244091D01*
X100299444Y-102244835D01*
X100352127Y-102250500D01*
X102147872Y-102250499D01*
X102207483Y-102244091D01*
X102342331Y-102193796D01*
X102457546Y-102107546D01*
X102543796Y-101992331D01*
X102594091Y-101857483D01*
X102600500Y-101797873D01*
X102600500Y-101624500D01*
X102620185Y-101557461D01*
X102672989Y-101511706D01*
X102724500Y-101500500D01*
X102749903Y-101500500D01*
X102816942Y-101520185D01*
X102837584Y-101536819D01*
X103088181Y-101787416D01*
X103121666Y-101848739D01*
X103124500Y-101875097D01*
X103124500Y-102223337D01*
X103124501Y-102223355D01*
X103134650Y-102322707D01*
X103134651Y-102322710D01*
X103187996Y-102483694D01*
X103188001Y-102483705D01*
X103277029Y-102628040D01*
X103281510Y-102633707D01*
X103279678Y-102635155D01*
X103307792Y-102686642D01*
X103302808Y-102756334D01*
X103260936Y-102812267D01*
X103195472Y-102836684D01*
X103186626Y-102837000D01*
X102833441Y-102837000D01*
X102801805Y-102845476D01*
X102801806Y-102845477D01*
X102680714Y-102877923D01*
X102680709Y-102877926D01*
X102543791Y-102956975D01*
X102543784Y-102956980D01*
X102537579Y-102963185D01*
X102476254Y-102996667D01*
X102449901Y-102999500D01*
X102101662Y-102999500D01*
X102101644Y-102999501D01*
X102002292Y-103009650D01*
X102002289Y-103009651D01*
X101841305Y-103062996D01*
X101841294Y-103063001D01*
X101696959Y-103152029D01*
X101637679Y-103211308D01*
X101576355Y-103244792D01*
X101506664Y-103239806D01*
X101462318Y-103211306D01*
X101353044Y-103102032D01*
X101353040Y-103102029D01*
X101208705Y-103013001D01*
X101208699Y-103012998D01*
X101208697Y-103012997D01*
X101176651Y-103002378D01*
X101047709Y-102959651D01*
X100948346Y-102949500D01*
X100351662Y-102949500D01*
X100351644Y-102949501D01*
X100252292Y-102959650D01*
X100252289Y-102959651D01*
X100151032Y-102993205D01*
X100112028Y-102999499D01*
X99430013Y-102999499D01*
X99362974Y-102979814D01*
X99317219Y-102927010D01*
X99307275Y-102857852D01*
X99328193Y-102809466D01*
X99326111Y-102808158D01*
X99339504Y-102786843D01*
X99425789Y-102649522D01*
X99485368Y-102479255D01*
X99496664Y-102379001D01*
X99505565Y-102300003D01*
X99505565Y-102299996D01*
X99485369Y-102120750D01*
X99485368Y-102120745D01*
X99475827Y-102093478D01*
X99425789Y-101950478D01*
X99329816Y-101797738D01*
X99202262Y-101670184D01*
X99049523Y-101574211D01*
X98879254Y-101514631D01*
X98879249Y-101514630D01*
X98700004Y-101494435D01*
X98699996Y-101494435D01*
X98520750Y-101514630D01*
X98520745Y-101514631D01*
X98350476Y-101574211D01*
X98197737Y-101670184D01*
X98070184Y-101797737D01*
X97974211Y-101950476D01*
X97914631Y-102120745D01*
X97914630Y-102120750D01*
X97894435Y-102299996D01*
X97894435Y-102300003D01*
X97914630Y-102479249D01*
X97914631Y-102479254D01*
X97968677Y-102633707D01*
X97974211Y-102649522D01*
X98041325Y-102756334D01*
X98060496Y-102786843D01*
X98079502Y-102852815D01*
X98079502Y-102961477D01*
X98059817Y-103028516D01*
X98029812Y-103060744D01*
X98013894Y-103072660D01*
X97948430Y-103097077D01*
X97880157Y-103082225D01*
X97865273Y-103072660D01*
X97777089Y-103006645D01*
X97777087Y-103006644D01*
X97642380Y-102956402D01*
X97642373Y-102956400D01*
X97582845Y-102949999D01*
X97349999Y-102949999D01*
X97349999Y-103325501D01*
X97330314Y-103392540D01*
X97277510Y-103438295D01*
X97225999Y-103449501D01*
X97174001Y-103449501D01*
X97106962Y-103429816D01*
X97061207Y-103377012D01*
X97050001Y-103325501D01*
X97050001Y-102949999D01*
X96817154Y-102949999D01*
X96757626Y-102956400D01*
X96757619Y-102956402D01*
X96622912Y-103006644D01*
X96622905Y-103006648D01*
X96507811Y-103092808D01*
X96507808Y-103092811D01*
X96421648Y-103207905D01*
X96421642Y-103207916D01*
X96401571Y-103261729D01*
X96359700Y-103317663D01*
X96294235Y-103342079D01*
X96225962Y-103327227D01*
X96208478Y-103315660D01*
X96205388Y-103313216D01*
X96062295Y-103224955D01*
X96062289Y-103224952D01*
X96062287Y-103224951D01*
X95902685Y-103172064D01*
X95902683Y-103172063D01*
X95804181Y-103162000D01*
X95804174Y-103162000D01*
X95195826Y-103162000D01*
X95195818Y-103162000D01*
X95097316Y-103172063D01*
X95097315Y-103172064D01*
X95018219Y-103198273D01*
X94937715Y-103224950D01*
X94937704Y-103224955D01*
X94794612Y-103313216D01*
X94794608Y-103313219D01*
X94675719Y-103432108D01*
X94675716Y-103432112D01*
X94587455Y-103575204D01*
X94587450Y-103575215D01*
X94564513Y-103644435D01*
X94534564Y-103734815D01*
X94534564Y-103734816D01*
X94534563Y-103734816D01*
X94524500Y-103833318D01*
X94524500Y-104366681D01*
X94534563Y-104465183D01*
X94587450Y-104624784D01*
X94587455Y-104624795D01*
X94675716Y-104767887D01*
X94675719Y-104767891D01*
X94707647Y-104799819D01*
X94741132Y-104861142D01*
X94736148Y-104930834D01*
X94707647Y-104975181D01*
X94675719Y-105007108D01*
X94675716Y-105007112D01*
X94587455Y-105150204D01*
X94587450Y-105150215D01*
X94584145Y-105160189D01*
X94534564Y-105309815D01*
X94534564Y-105309816D01*
X94534563Y-105309816D01*
X94524500Y-105408318D01*
X94524500Y-105941681D01*
X94534563Y-106040183D01*
X94587450Y-106199784D01*
X94587455Y-106199795D01*
X94675716Y-106342887D01*
X94675719Y-106342891D01*
X94784972Y-106452144D01*
X94818457Y-106513467D01*
X94813473Y-106583159D01*
X94802286Y-106605795D01*
X94774209Y-106650480D01*
X94714633Y-106820737D01*
X94714630Y-106820750D01*
X94694435Y-106999996D01*
X94694435Y-107000003D01*
X94714630Y-107179249D01*
X94714631Y-107179254D01*
X94774211Y-107349523D01*
X94834312Y-107445172D01*
X94870184Y-107502262D01*
X94997738Y-107629816D01*
X95150478Y-107725789D01*
X95320745Y-107785368D01*
X95320750Y-107785369D01*
X95499996Y-107805565D01*
X95500000Y-107805565D01*
X95500004Y-107805565D01*
X95679249Y-107785369D01*
X95679252Y-107785368D01*
X95679255Y-107785368D01*
X95849522Y-107725789D01*
X96002262Y-107629816D01*
X96012819Y-107619259D01*
X96074142Y-107585774D01*
X96143834Y-107590758D01*
X96199767Y-107632630D01*
X96224184Y-107698094D01*
X96224500Y-107706940D01*
X96224500Y-107899900D01*
X96204815Y-107966939D01*
X96188182Y-107987581D01*
X96056286Y-108119478D01*
X96056285Y-108119477D01*
X96056284Y-108119480D01*
X95944481Y-108231282D01*
X95944477Y-108231287D01*
X95925243Y-108264604D01*
X95925242Y-108264606D01*
X95865423Y-108368215D01*
X95824499Y-108520943D01*
X95824499Y-108520945D01*
X95824499Y-108689046D01*
X95824500Y-108689059D01*
X95824500Y-110725500D01*
X95804815Y-110792539D01*
X95752011Y-110838294D01*
X95705389Y-110848450D01*
X95705423Y-110849099D01*
X95705429Y-110849146D01*
X95705426Y-110849146D01*
X95705436Y-110849324D01*
X95702123Y-110849501D01*
X95642516Y-110855908D01*
X95507671Y-110906202D01*
X95507664Y-110906206D01*
X95392455Y-110992452D01*
X95392452Y-110992455D01*
X95306206Y-111107664D01*
X95306202Y-111107671D01*
X95255908Y-111242517D01*
X95249501Y-111302116D01*
X95249501Y-111302123D01*
X95249500Y-111302135D01*
X95249500Y-113097870D01*
X95249501Y-113097876D01*
X95255908Y-113157483D01*
X95306202Y-113292328D01*
X95306206Y-113292335D01*
X95392452Y-113407544D01*
X95392455Y-113407547D01*
X95507664Y-113493793D01*
X95507671Y-113493797D01*
X95642517Y-113544091D01*
X95642516Y-113544091D01*
X95649444Y-113544835D01*
X95702127Y-113550500D01*
X97497872Y-113550499D01*
X97557483Y-113544091D01*
X97692331Y-113493796D01*
X97807546Y-113407546D01*
X97893796Y-113292331D01*
X97944091Y-113157483D01*
X97950500Y-113097873D01*
X97950499Y-111302128D01*
X97944091Y-111242517D01*
X97920495Y-111179254D01*
X97893797Y-111107671D01*
X97893793Y-111107664D01*
X97807547Y-110992455D01*
X97807544Y-110992452D01*
X97692335Y-110906206D01*
X97692328Y-110906202D01*
X97557482Y-110855908D01*
X97557483Y-110855908D01*
X97497883Y-110849501D01*
X97497881Y-110849500D01*
X97497873Y-110849500D01*
X97497865Y-110849500D01*
X97149500Y-110849500D01*
X97082461Y-110829815D01*
X97036706Y-110777011D01*
X97025500Y-110725500D01*
X97025500Y-110324999D01*
X97450000Y-110324999D01*
X97498308Y-110324999D01*
X97498322Y-110324998D01*
X97597607Y-110314855D01*
X97758481Y-110261547D01*
X97758492Y-110261542D01*
X97902728Y-110172575D01*
X97902729Y-110172575D01*
X97904990Y-110170314D01*
X97906925Y-110169256D01*
X97908395Y-110168095D01*
X97908593Y-110168346D01*
X97966311Y-110136825D01*
X98036003Y-110141804D01*
X98080358Y-110170308D01*
X98090122Y-110180072D01*
X98235604Y-110268019D01*
X98235603Y-110268019D01*
X98397894Y-110318590D01*
X98397892Y-110318590D01*
X98468418Y-110324999D01*
X98549999Y-110324998D01*
X98550000Y-110324998D01*
X98550000Y-109675000D01*
X97883362Y-109675000D01*
X97816323Y-109655315D01*
X97795681Y-109638681D01*
X97782000Y-109625000D01*
X97450000Y-109625000D01*
X97450000Y-110324999D01*
X97025500Y-110324999D01*
X97025500Y-109249000D01*
X97045185Y-109181961D01*
X97097989Y-109136206D01*
X97149500Y-109125000D01*
X98116638Y-109125000D01*
X98183677Y-109144685D01*
X98204319Y-109161319D01*
X98218000Y-109175000D01*
X98926000Y-109175000D01*
X98993039Y-109194685D01*
X99038794Y-109247489D01*
X99050000Y-109299000D01*
X99050000Y-110324999D01*
X99131581Y-110324999D01*
X99202102Y-110318591D01*
X99202107Y-110318590D01*
X99364396Y-110268018D01*
X99509877Y-110180072D01*
X99630072Y-110059877D01*
X99718019Y-109914395D01*
X99768590Y-109752106D01*
X99774999Y-109681572D01*
X99774999Y-109565020D01*
X99794683Y-109497980D01*
X99847487Y-109452225D01*
X99916645Y-109442281D01*
X99980201Y-109471305D01*
X99986680Y-109477338D01*
X99989811Y-109480469D01*
X99989813Y-109480470D01*
X99989815Y-109480472D01*
X100039650Y-109510598D01*
X100086838Y-109562126D01*
X100099500Y-109616715D01*
X100099500Y-110941769D01*
X100079815Y-111008808D01*
X100074767Y-111016080D01*
X100006204Y-111107668D01*
X100006202Y-111107671D01*
X99955908Y-111242517D01*
X99949501Y-111302116D01*
X99949501Y-111302123D01*
X99949500Y-111302135D01*
X99949500Y-113097870D01*
X99949501Y-113097876D01*
X99955908Y-113157483D01*
X100006202Y-113292328D01*
X100006206Y-113292335D01*
X100092452Y-113407544D01*
X100092455Y-113407547D01*
X100207664Y-113493793D01*
X100207671Y-113493797D01*
X100342517Y-113544091D01*
X100342516Y-113544091D01*
X100349444Y-113544835D01*
X100402127Y-113550500D01*
X102197872Y-113550499D01*
X102257483Y-113544091D01*
X102392331Y-113493796D01*
X102507546Y-113407546D01*
X102593796Y-113292331D01*
X102644091Y-113157483D01*
X102650500Y-113097873D01*
X102650499Y-111302128D01*
X102644091Y-111242517D01*
X102620495Y-111179254D01*
X102593797Y-111107671D01*
X102593793Y-111107664D01*
X102507547Y-110992455D01*
X102507544Y-110992452D01*
X102392335Y-110906206D01*
X102392328Y-110906202D01*
X102257482Y-110855908D01*
X102257483Y-110855908D01*
X102197883Y-110849501D01*
X102197881Y-110849500D01*
X102197873Y-110849500D01*
X102197865Y-110849500D01*
X101424500Y-110849500D01*
X101357461Y-110829815D01*
X101311706Y-110777011D01*
X101300500Y-110725500D01*
X101300500Y-109616715D01*
X101320185Y-109549676D01*
X101360349Y-109510598D01*
X101410185Y-109480472D01*
X101530472Y-109360185D01*
X101618478Y-109214606D01*
X101669086Y-109052196D01*
X101675500Y-108981616D01*
X101675500Y-108468384D01*
X101669086Y-108397804D01*
X101618478Y-108235394D01*
X101530472Y-108089815D01*
X101530470Y-108089813D01*
X101530469Y-108089811D01*
X101427984Y-107987326D01*
X101394499Y-107926003D01*
X101399483Y-107856311D01*
X101427985Y-107811963D01*
X101530071Y-107709878D01*
X101530072Y-107709877D01*
X101618019Y-107564395D01*
X101668590Y-107402106D01*
X101675000Y-107331572D01*
X101675000Y-107325000D01*
X100599500Y-107325000D01*
X100532461Y-107305315D01*
X100486706Y-107252511D01*
X100475500Y-107201000D01*
X100475500Y-106132000D01*
X100900000Y-106132000D01*
X100913681Y-106145681D01*
X100947166Y-106207004D01*
X100950000Y-106233362D01*
X100950000Y-106825000D01*
X101674999Y-106825000D01*
X101674999Y-106818417D01*
X101668591Y-106747897D01*
X101668590Y-106747892D01*
X101618018Y-106585603D01*
X101558622Y-106487350D01*
X101540786Y-106419796D01*
X101562303Y-106353322D01*
X101616343Y-106309034D01*
X101685749Y-106300993D01*
X101729836Y-106317662D01*
X101841507Y-106386542D01*
X101841518Y-106386547D01*
X102002393Y-106439855D01*
X102101683Y-106449999D01*
X102650000Y-106449999D01*
X102698308Y-106449999D01*
X102698322Y-106449998D01*
X102797607Y-106439855D01*
X102958481Y-106386547D01*
X102958492Y-106386542D01*
X103102728Y-106297575D01*
X103102732Y-106297572D01*
X103222572Y-106177732D01*
X103222575Y-106177728D01*
X103311542Y-106033492D01*
X103311547Y-106033481D01*
X103364855Y-105872606D01*
X103374999Y-105773322D01*
X103375000Y-105773309D01*
X103375000Y-105750000D01*
X102650000Y-105750000D01*
X102650000Y-106449999D01*
X102101683Y-106449999D01*
X102149999Y-106449998D01*
X102150000Y-106449998D01*
X102150000Y-105750000D01*
X101483362Y-105750000D01*
X101416323Y-105730315D01*
X101395681Y-105713681D01*
X101382000Y-105700000D01*
X100900000Y-105700000D01*
X100900000Y-106132000D01*
X100475500Y-106132000D01*
X100475500Y-105324000D01*
X100495185Y-105256961D01*
X100547989Y-105211206D01*
X100599500Y-105200000D01*
X101566638Y-105200000D01*
X101633677Y-105219685D01*
X101654319Y-105236319D01*
X101668000Y-105250000D01*
X103374999Y-105250000D01*
X103374999Y-105226692D01*
X103374998Y-105226677D01*
X103364855Y-105127392D01*
X103311547Y-104966518D01*
X103311542Y-104966507D01*
X103222575Y-104822271D01*
X103222572Y-104822267D01*
X103213339Y-104813034D01*
X103179854Y-104751711D01*
X103184838Y-104682019D01*
X103213343Y-104637668D01*
X103222968Y-104628044D01*
X103312003Y-104483697D01*
X103365349Y-104322708D01*
X103375500Y-104223345D01*
X103375500Y-104162000D01*
X103395185Y-104094961D01*
X103447989Y-104049206D01*
X103499500Y-104038000D01*
X103759804Y-104038000D01*
X103826843Y-104057685D01*
X103872598Y-104110489D01*
X103882542Y-104179647D01*
X103853517Y-104243203D01*
X103834115Y-104261266D01*
X103792455Y-104292452D01*
X103792452Y-104292455D01*
X103706206Y-104407664D01*
X103706202Y-104407671D01*
X103655908Y-104542517D01*
X103649501Y-104602116D01*
X103649500Y-104602135D01*
X103649500Y-106397870D01*
X103649501Y-106397876D01*
X103655908Y-106457483D01*
X103706202Y-106592328D01*
X103706206Y-106592335D01*
X103792452Y-106707544D01*
X103792455Y-106707547D01*
X103907664Y-106793793D01*
X103907671Y-106793797D01*
X103907674Y-106793798D01*
X104039598Y-106843002D01*
X104095531Y-106884873D01*
X104119949Y-106950337D01*
X104105098Y-107018610D01*
X104083947Y-107046865D01*
X103961886Y-107168926D01*
X103826400Y-107362420D01*
X103826399Y-107362422D01*
X103726570Y-107576507D01*
X103726567Y-107576513D01*
X103669364Y-107789999D01*
X103669364Y-107790000D01*
X104566988Y-107790000D01*
X104534075Y-107847007D01*
X104500000Y-107974174D01*
X104500000Y-108105826D01*
X104534075Y-108232993D01*
X104566988Y-108290000D01*
X103669364Y-108290000D01*
X103726567Y-108503486D01*
X103726570Y-108503492D01*
X103826399Y-108717578D01*
X103961894Y-108911082D01*
X104128917Y-109078105D01*
X104322421Y-109213600D01*
X104536507Y-109313429D01*
X104536516Y-109313433D01*
X104750000Y-109370634D01*
X104750000Y-108473012D01*
X104807007Y-108505925D01*
X104934174Y-108540000D01*
X105065826Y-108540000D01*
X105192993Y-108505925D01*
X105250000Y-108473012D01*
X105250000Y-109370633D01*
X105463483Y-109313433D01*
X105463492Y-109313429D01*
X105677578Y-109213600D01*
X105871082Y-109078105D01*
X106038105Y-108911082D01*
X106111278Y-108806582D01*
X106725001Y-108806582D01*
X106731408Y-108877102D01*
X106731409Y-108877107D01*
X106781981Y-109039396D01*
X106869927Y-109184877D01*
X106990122Y-109305072D01*
X107135604Y-109393019D01*
X107135603Y-109393019D01*
X107297894Y-109443590D01*
X107297892Y-109443590D01*
X107368418Y-109449999D01*
X107950000Y-109449999D01*
X108031581Y-109449999D01*
X108102102Y-109443591D01*
X108102107Y-109443590D01*
X108264396Y-109393018D01*
X108409875Y-109305073D01*
X108487553Y-109227395D01*
X108548876Y-109193910D01*
X108618568Y-109198894D01*
X108662881Y-109231310D01*
X108664621Y-109229571D01*
X108790122Y-109355072D01*
X108935604Y-109443019D01*
X108935603Y-109443019D01*
X109097894Y-109493590D01*
X109097892Y-109493590D01*
X109168418Y-109499999D01*
X109750000Y-109499999D01*
X109831581Y-109499999D01*
X109902102Y-109493591D01*
X109902107Y-109493590D01*
X110064396Y-109443018D01*
X110209877Y-109355072D01*
X110330072Y-109234877D01*
X110418019Y-109089395D01*
X110468590Y-108927106D01*
X110475000Y-108856572D01*
X110475000Y-108850000D01*
X109750000Y-108850000D01*
X109750000Y-109499999D01*
X109168418Y-109499999D01*
X109249999Y-109499998D01*
X109250000Y-109499998D01*
X109250000Y-108850000D01*
X108583362Y-108850000D01*
X108516323Y-108830315D01*
X108495681Y-108813681D01*
X108482000Y-108800000D01*
X107950000Y-108800000D01*
X107950000Y-109449999D01*
X107368418Y-109449999D01*
X107449999Y-109449998D01*
X107450000Y-109449998D01*
X107450000Y-108800000D01*
X106725001Y-108800000D01*
X106725001Y-108806582D01*
X106111278Y-108806582D01*
X106173600Y-108717578D01*
X106273429Y-108503492D01*
X106273432Y-108503486D01*
X106330636Y-108290000D01*
X105433012Y-108290000D01*
X105465925Y-108232993D01*
X105500000Y-108105826D01*
X105500000Y-107974174D01*
X105465925Y-107847007D01*
X105433012Y-107790000D01*
X106330636Y-107790000D01*
X106330635Y-107789999D01*
X106273432Y-107576513D01*
X106273429Y-107576507D01*
X106173600Y-107362422D01*
X106173599Y-107362420D01*
X106038113Y-107168926D01*
X106038108Y-107168920D01*
X105916053Y-107046865D01*
X105882568Y-106985542D01*
X105887552Y-106915850D01*
X105929424Y-106859917D01*
X105960400Y-106843002D01*
X106092331Y-106793796D01*
X106207546Y-106707546D01*
X106293796Y-106592331D01*
X106344091Y-106457483D01*
X106350500Y-106397873D01*
X106350499Y-105050097D01*
X106370184Y-104983059D01*
X106386818Y-104962417D01*
X106536201Y-104813034D01*
X106703078Y-104646156D01*
X106764398Y-104612674D01*
X106834089Y-104617658D01*
X106890023Y-104659529D01*
X106905317Y-104686387D01*
X106945719Y-104783925D01*
X106945721Y-104783929D01*
X107035964Y-104901536D01*
X107153571Y-104991779D01*
X107290528Y-105048509D01*
X107400599Y-105063000D01*
X107750500Y-105062999D01*
X107817539Y-105082683D01*
X107863294Y-105135487D01*
X107874500Y-105186999D01*
X107874500Y-105536903D01*
X107888988Y-105646963D01*
X107888991Y-105646971D01*
X107920198Y-105722311D01*
X107927667Y-105791780D01*
X107896392Y-105854260D01*
X107893319Y-105857444D01*
X107787585Y-105963180D01*
X107726262Y-105996666D01*
X107699903Y-105999500D01*
X107368384Y-105999500D01*
X107349145Y-106001248D01*
X107297807Y-106005913D01*
X107135393Y-106056522D01*
X106989811Y-106144530D01*
X106869530Y-106264811D01*
X106781522Y-106410393D01*
X106730913Y-106572807D01*
X106724500Y-106643386D01*
X106724500Y-107156613D01*
X106730913Y-107227192D01*
X106730913Y-107227194D01*
X106730914Y-107227196D01*
X106761390Y-107325000D01*
X106781522Y-107389606D01*
X106869530Y-107535188D01*
X106972015Y-107637673D01*
X107005500Y-107698996D01*
X107000516Y-107768688D01*
X106972015Y-107813035D01*
X106869928Y-107915121D01*
X106869927Y-107915122D01*
X106781980Y-108060604D01*
X106731409Y-108222893D01*
X106725000Y-108293427D01*
X106725000Y-108300000D01*
X108616638Y-108300000D01*
X108683677Y-108319685D01*
X108704319Y-108336319D01*
X108718000Y-108350000D01*
X110474999Y-108350000D01*
X110474999Y-108343417D01*
X110468591Y-108272897D01*
X110468590Y-108272892D01*
X110418018Y-108110603D01*
X110330072Y-107965122D01*
X110227984Y-107863034D01*
X110194499Y-107801711D01*
X110199483Y-107732019D01*
X110227983Y-107687673D01*
X110330472Y-107585185D01*
X110418478Y-107439606D01*
X110469086Y-107277196D01*
X110470855Y-107257720D01*
X110496524Y-107192740D01*
X110553252Y-107151951D01*
X110623026Y-107148305D01*
X110682027Y-107181262D01*
X111013181Y-107512416D01*
X111046666Y-107573739D01*
X111049500Y-107600097D01*
X111049500Y-108947870D01*
X111049501Y-108947876D01*
X111055908Y-109007483D01*
X111106202Y-109142328D01*
X111106206Y-109142335D01*
X111192452Y-109257544D01*
X111192455Y-109257547D01*
X111307664Y-109343793D01*
X111307671Y-109343797D01*
X111442517Y-109394091D01*
X111442516Y-109394091D01*
X111449444Y-109394835D01*
X111502127Y-109400500D01*
X113297872Y-109400499D01*
X113357483Y-109394091D01*
X113492331Y-109343796D01*
X113607546Y-109257546D01*
X113693796Y-109142331D01*
X113744091Y-109007483D01*
X113750500Y-108947873D01*
X113750499Y-107152128D01*
X113744091Y-107092517D01*
X113716525Y-107018610D01*
X113693797Y-106957671D01*
X113693793Y-106957664D01*
X113607547Y-106842455D01*
X113607544Y-106842452D01*
X113492335Y-106756206D01*
X113492328Y-106756202D01*
X113357482Y-106705908D01*
X113357483Y-106705908D01*
X113297883Y-106699501D01*
X113297881Y-106699500D01*
X113297873Y-106699500D01*
X113297865Y-106699500D01*
X111950098Y-106699500D01*
X111883059Y-106679815D01*
X111862417Y-106663181D01*
X111619032Y-106419796D01*
X111358471Y-106159236D01*
X111324987Y-106097914D01*
X111329971Y-106028223D01*
X111370666Y-105973181D01*
X111464036Y-105901536D01*
X111554279Y-105783929D01*
X111554279Y-105783926D01*
X111559226Y-105777481D01*
X111561162Y-105778967D01*
X111602792Y-105739280D01*
X111659604Y-105725500D01*
X113074903Y-105725500D01*
X113141942Y-105745185D01*
X113162584Y-105761819D01*
X114913181Y-107512416D01*
X114946666Y-107573739D01*
X114949500Y-107600097D01*
X114949500Y-108947870D01*
X114949501Y-108947876D01*
X114955908Y-109007483D01*
X115006202Y-109142328D01*
X115006206Y-109142335D01*
X115092452Y-109257544D01*
X115092455Y-109257547D01*
X115207664Y-109343793D01*
X115207671Y-109343797D01*
X115251610Y-109360185D01*
X115342517Y-109394091D01*
X115402127Y-109400500D01*
X115575500Y-109400499D01*
X115642539Y-109420183D01*
X115688294Y-109472987D01*
X115699500Y-109524499D01*
X115699500Y-110174875D01*
X115679815Y-110241914D01*
X115641473Y-110279868D01*
X115497739Y-110370182D01*
X115370184Y-110497737D01*
X115274211Y-110650476D01*
X115214631Y-110820745D01*
X115214630Y-110820750D01*
X115194435Y-110999996D01*
X115194435Y-111000003D01*
X115214630Y-111179249D01*
X115214631Y-111179254D01*
X115274211Y-111349523D01*
X115320257Y-111422804D01*
X115370184Y-111502262D01*
X115497738Y-111629816D01*
X115650478Y-111725789D01*
X115820745Y-111785368D01*
X115820750Y-111785369D01*
X115999996Y-111805565D01*
X116000000Y-111805565D01*
X116000004Y-111805565D01*
X116179249Y-111785369D01*
X116179252Y-111785368D01*
X116179255Y-111785368D01*
X116349522Y-111725789D01*
X116502262Y-111629816D01*
X116629816Y-111502262D01*
X116725789Y-111349522D01*
X116785368Y-111179255D01*
X116792629Y-111114815D01*
X116799121Y-111057189D01*
X116814953Y-111009074D01*
X116830639Y-110981904D01*
X116859577Y-110931785D01*
X116900500Y-110779057D01*
X116900500Y-110620943D01*
X116900500Y-109524499D01*
X116920185Y-109457460D01*
X116972989Y-109411705D01*
X117024500Y-109400499D01*
X117197871Y-109400499D01*
X117197872Y-109400499D01*
X117257483Y-109394091D01*
X117392331Y-109343796D01*
X117507546Y-109257546D01*
X117593796Y-109142331D01*
X117644091Y-109007483D01*
X117650500Y-108947873D01*
X117650499Y-107152128D01*
X117644091Y-107092517D01*
X117616525Y-107018610D01*
X117593797Y-106957671D01*
X117593793Y-106957664D01*
X117507547Y-106842455D01*
X117507544Y-106842452D01*
X117392335Y-106756206D01*
X117392328Y-106756202D01*
X117257482Y-106705908D01*
X117257483Y-106705908D01*
X117197883Y-106699501D01*
X117197881Y-106699500D01*
X117197873Y-106699500D01*
X117197865Y-106699500D01*
X115850098Y-106699500D01*
X115783059Y-106679815D01*
X115762417Y-106663181D01*
X115062416Y-105963180D01*
X114348915Y-105249680D01*
X114315431Y-105188358D01*
X114320415Y-105118666D01*
X114362287Y-105062733D01*
X114427751Y-105038316D01*
X114436597Y-105038000D01*
X115550728Y-105038000D01*
X115617767Y-105057685D01*
X115656844Y-105097849D01*
X115694528Y-105160185D01*
X115694531Y-105160189D01*
X115814811Y-105280469D01*
X115814813Y-105280470D01*
X115814815Y-105280472D01*
X115960394Y-105368478D01*
X116122804Y-105419086D01*
X116193384Y-105425500D01*
X116524903Y-105425500D01*
X116591942Y-105445185D01*
X116612584Y-105461819D01*
X118263181Y-107112416D01*
X118296666Y-107173739D01*
X118299500Y-107200097D01*
X118299500Y-107797870D01*
X118299501Y-107797876D01*
X118305908Y-107857479D01*
X118307692Y-107865026D01*
X118306229Y-107865371D01*
X118310585Y-107926371D01*
X118306173Y-107941396D01*
X118305908Y-107942517D01*
X118299501Y-108002116D01*
X118299500Y-108002135D01*
X118299500Y-109097870D01*
X118299501Y-109097876D01*
X118305908Y-109157479D01*
X118307692Y-109165026D01*
X118306229Y-109165371D01*
X118310585Y-109226371D01*
X118306173Y-109241396D01*
X118305908Y-109242517D01*
X118299501Y-109302116D01*
X118299500Y-109302135D01*
X118299500Y-110397870D01*
X118299501Y-110397876D01*
X118305908Y-110457483D01*
X118356202Y-110592328D01*
X118356206Y-110592335D01*
X118442452Y-110707544D01*
X118442455Y-110707547D01*
X118557664Y-110793793D01*
X118557671Y-110793797D01*
X118676974Y-110838294D01*
X118692517Y-110844091D01*
X118703654Y-110845288D01*
X118768204Y-110872022D01*
X118808055Y-110929412D01*
X118810552Y-110999237D01*
X118778084Y-111056258D01*
X118719529Y-111114813D01*
X118631522Y-111260393D01*
X118580913Y-111422807D01*
X118574500Y-111493386D01*
X118574500Y-112006613D01*
X118580913Y-112077192D01*
X118631522Y-112239606D01*
X118719530Y-112385188D01*
X118821661Y-112487319D01*
X118855146Y-112548642D01*
X118850162Y-112618334D01*
X118821661Y-112662681D01*
X118719531Y-112764810D01*
X118719530Y-112764811D01*
X118631522Y-112910393D01*
X118580913Y-113072807D01*
X118574500Y-113143386D01*
X118574500Y-113656613D01*
X118580913Y-113727192D01*
X118580913Y-113727194D01*
X118580914Y-113727196D01*
X118631522Y-113889606D01*
X118674904Y-113961369D01*
X118719530Y-114035188D01*
X118839811Y-114155469D01*
X118839813Y-114155470D01*
X118839815Y-114155472D01*
X118985394Y-114243478D01*
X119147804Y-114294086D01*
X119218384Y-114300500D01*
X119218387Y-114300500D01*
X119881613Y-114300500D01*
X119881616Y-114300500D01*
X119952196Y-114294086D01*
X120114606Y-114243478D01*
X120260185Y-114155472D01*
X120380472Y-114035185D01*
X120406674Y-113991840D01*
X120450788Y-113948604D01*
X120481904Y-113930639D01*
X120568716Y-113880520D01*
X120680520Y-113768716D01*
X120680520Y-113768714D01*
X120690728Y-113758507D01*
X120690729Y-113758504D01*
X120698526Y-113750707D01*
X120759847Y-113717224D01*
X120829539Y-113722208D01*
X120885472Y-113764080D01*
X120904590Y-113801498D01*
X120931981Y-113889397D01*
X121019927Y-114034877D01*
X121140122Y-114155072D01*
X121285604Y-114243019D01*
X121285603Y-114243019D01*
X121447894Y-114293590D01*
X121447892Y-114293590D01*
X121518418Y-114299999D01*
X121599999Y-114299998D01*
X121600000Y-114299998D01*
X121600000Y-113274000D01*
X121619685Y-113206961D01*
X121672489Y-113161206D01*
X121724000Y-113150000D01*
X121976000Y-113150000D01*
X122043039Y-113169685D01*
X122088794Y-113222489D01*
X122100000Y-113274000D01*
X122100000Y-114299999D01*
X122181581Y-114299999D01*
X122252102Y-114293591D01*
X122252107Y-114293590D01*
X122414396Y-114243018D01*
X122559877Y-114155072D01*
X122680072Y-114034877D01*
X122769883Y-113886313D01*
X122821411Y-113839125D01*
X122890270Y-113827287D01*
X122954599Y-113854556D01*
X122993973Y-113912275D01*
X123000000Y-113950463D01*
X123000000Y-115876000D01*
X122980315Y-115943039D01*
X122927511Y-115988794D01*
X122876000Y-116000000D01*
X91124000Y-116000000D01*
X91056961Y-115980315D01*
X91011206Y-115927511D01*
X91000000Y-115876000D01*
X91000000Y-88124000D01*
X91019685Y-88056961D01*
X91072489Y-88011206D01*
X91124000Y-88000000D01*
X122876000Y-88000000D01*
X122943039Y-88019685D01*
G37*
%TD.AperFunction*%
%TA.AperFunction,Conductor*%
G36*
X110282514Y-102172001D02*
G01*
X110282674Y-102171405D01*
X110290524Y-102173508D01*
X110290526Y-102173508D01*
X110290528Y-102173509D01*
X110400599Y-102188000D01*
X110599400Y-102187999D01*
X110612039Y-102186335D01*
X110681073Y-102197100D01*
X110733329Y-102243480D01*
X110752215Y-102310749D01*
X110751164Y-102325452D01*
X110749500Y-102338096D01*
X110749500Y-102536903D01*
X110763989Y-102646968D01*
X110766094Y-102654822D01*
X110762814Y-102655700D01*
X110768581Y-102709573D01*
X110765517Y-102720022D01*
X110766095Y-102720177D01*
X110763990Y-102728029D01*
X110749500Y-102838098D01*
X110749500Y-103036903D01*
X110763989Y-103146968D01*
X110766094Y-103154822D01*
X110763010Y-103155648D01*
X110768849Y-103210237D01*
X110766014Y-103220153D01*
X110766582Y-103220306D01*
X110764478Y-103228158D01*
X110753373Y-103312500D01*
X110781494Y-103312500D01*
X110848533Y-103332185D01*
X110879885Y-103361034D01*
X110880652Y-103362034D01*
X110905833Y-103427208D01*
X110891781Y-103495650D01*
X110880652Y-103512966D01*
X110879885Y-103513966D01*
X110823466Y-103555181D01*
X110781494Y-103562500D01*
X110753374Y-103562500D01*
X110764478Y-103646846D01*
X110766582Y-103654697D01*
X110763313Y-103655572D01*
X110768648Y-103710012D01*
X110765650Y-103720054D01*
X110766095Y-103720173D01*
X110763991Y-103728024D01*
X110749500Y-103838098D01*
X110749500Y-104036900D01*
X110751165Y-104049545D01*
X110740396Y-104118580D01*
X110694013Y-104170833D01*
X110626743Y-104189715D01*
X110612046Y-104188664D01*
X110599401Y-104187000D01*
X110400596Y-104187000D01*
X110290531Y-104201489D01*
X110282678Y-104203594D01*
X110281802Y-104200324D01*
X110227853Y-104206067D01*
X110217477Y-104203018D01*
X110217323Y-104203595D01*
X110209470Y-104201490D01*
X110099401Y-104187000D01*
X109900596Y-104187000D01*
X109790531Y-104201489D01*
X109782678Y-104203594D01*
X109781802Y-104200324D01*
X109727853Y-104206067D01*
X109717477Y-104203018D01*
X109717323Y-104203595D01*
X109709470Y-104201490D01*
X109599401Y-104187000D01*
X109400596Y-104187000D01*
X109290531Y-104201489D01*
X109282678Y-104203594D01*
X109281802Y-104200324D01*
X109227853Y-104206067D01*
X109217477Y-104203018D01*
X109217323Y-104203595D01*
X109209470Y-104201490D01*
X109099401Y-104187000D01*
X108900598Y-104187000D01*
X108887953Y-104188665D01*
X108818918Y-104177895D01*
X108766665Y-104131512D01*
X108747784Y-104064242D01*
X108748836Y-104049539D01*
X108748880Y-104049206D01*
X108750500Y-104036901D01*
X108750499Y-103838100D01*
X108749869Y-103833318D01*
X108738838Y-103749522D01*
X108736009Y-103728028D01*
X108736008Y-103728025D01*
X108733905Y-103720174D01*
X108737207Y-103719289D01*
X108731392Y-103665575D01*
X108734501Y-103654985D01*
X108733905Y-103654826D01*
X108736008Y-103646975D01*
X108736008Y-103646974D01*
X108736009Y-103646972D01*
X108750500Y-103536901D01*
X108750499Y-103338100D01*
X108749720Y-103332185D01*
X108744474Y-103292331D01*
X108736009Y-103228028D01*
X108736008Y-103228025D01*
X108733905Y-103220174D01*
X108737207Y-103219289D01*
X108731392Y-103165575D01*
X108734501Y-103154985D01*
X108733905Y-103154826D01*
X108736008Y-103146975D01*
X108736008Y-103146974D01*
X108736009Y-103146972D01*
X108750500Y-103036901D01*
X108750499Y-102838100D01*
X108736009Y-102728028D01*
X108736008Y-102728025D01*
X108733905Y-102720174D01*
X108737207Y-102719289D01*
X108731392Y-102665575D01*
X108734501Y-102654985D01*
X108733905Y-102654826D01*
X108736008Y-102646975D01*
X108736008Y-102646974D01*
X108736009Y-102646972D01*
X108750500Y-102536901D01*
X108750499Y-102338100D01*
X108750498Y-102338096D01*
X108748835Y-102325460D01*
X108759601Y-102256425D01*
X108805981Y-102204169D01*
X108873249Y-102185284D01*
X108887959Y-102186336D01*
X108888945Y-102186465D01*
X108900599Y-102188000D01*
X109099400Y-102187999D01*
X109099401Y-102187999D01*
X109120024Y-102185284D01*
X109209472Y-102173509D01*
X109209475Y-102173507D01*
X109217326Y-102171405D01*
X109218210Y-102174707D01*
X109271925Y-102168892D01*
X109282514Y-102172001D01*
X109282674Y-102171405D01*
X109290524Y-102173508D01*
X109290526Y-102173508D01*
X109290528Y-102173509D01*
X109400599Y-102188000D01*
X109599400Y-102187999D01*
X109599401Y-102187999D01*
X109620024Y-102185284D01*
X109709472Y-102173509D01*
X109709475Y-102173507D01*
X109717326Y-102171405D01*
X109718210Y-102174707D01*
X109771925Y-102168892D01*
X109782514Y-102172001D01*
X109782674Y-102171405D01*
X109790524Y-102173508D01*
X109790526Y-102173508D01*
X109790528Y-102173509D01*
X109900599Y-102188000D01*
X110099400Y-102187999D01*
X110099401Y-102187999D01*
X110120024Y-102185284D01*
X110209472Y-102173509D01*
X110209475Y-102173507D01*
X110217326Y-102171405D01*
X110218210Y-102174707D01*
X110271925Y-102168892D01*
X110282514Y-102172001D01*
G37*
%TD.AperFunction*%
%TA.AperFunction,Conductor*%
G36*
X112486614Y-100870185D02*
G01*
X112525113Y-100909402D01*
X112552031Y-100953043D01*
X112671955Y-101072967D01*
X112671959Y-101072970D01*
X112727878Y-101107462D01*
X112774603Y-101159410D01*
X112785824Y-101228373D01*
X112757981Y-101292454D01*
X112699912Y-101331310D01*
X112662781Y-101337000D01*
X112259508Y-101337000D01*
X112212058Y-101327562D01*
X112209475Y-101326492D01*
X112209470Y-101326490D01*
X112099402Y-101312000D01*
X111737361Y-101312000D01*
X111670322Y-101292315D01*
X111624567Y-101239511D01*
X111614623Y-101170353D01*
X111625000Y-101147630D01*
X111625000Y-100974500D01*
X111644685Y-100907461D01*
X111697489Y-100861706D01*
X111749000Y-100850500D01*
X112419575Y-100850500D01*
X112486614Y-100870185D01*
G37*
%TD.AperFunction*%
%TD*%
M02*
