%TF.GenerationSoftware,KiCad,Pcbnew,8.0.4*%
%TF.CreationDate,2024-09-13T17:59:23-07:00*%
%TF.ProjectId,powerTest,706f7765-7254-4657-9374-2e6b69636164,rev?*%
%TF.SameCoordinates,Original*%
%TF.FileFunction,Copper,L2,Bot*%
%TF.FilePolarity,Positive*%
%FSLAX46Y46*%
G04 Gerber Fmt 4.6, Leading zero omitted, Abs format (unit mm)*
G04 Created by KiCad (PCBNEW 8.0.4) date 2024-09-13 17:59:23*
%MOMM*%
%LPD*%
G01*
G04 APERTURE LIST*
%TA.AperFunction,ComponentPad*%
%ADD10R,1.700000X1.700000*%
%TD*%
%TA.AperFunction,ComponentPad*%
%ADD11O,1.700000X1.700000*%
%TD*%
%TA.AperFunction,ViaPad*%
%ADD12C,0.600000*%
%TD*%
%TA.AperFunction,Conductor*%
%ADD13C,0.200000*%
%TD*%
G04 APERTURE END LIST*
D10*
%TO.P,J9,1,Pin_1*%
%TO.N,+3.3V*%
X101250000Y-100900000D03*
%TD*%
%TO.P,J1,1,Pin_1*%
%TO.N,GND*%
X113040000Y-93775000D03*
D11*
%TO.P,J1,2,Pin_2*%
%TO.N,Net-(J1-Pin_2)*%
X110500000Y-93775000D03*
%TD*%
D10*
%TO.P,J8,1,Pin_1*%
%TO.N,GND*%
X105200000Y-92500000D03*
%TD*%
%TO.P,J5,1,Pin_1*%
%TO.N,LLD*%
X106900000Y-97750000D03*
%TD*%
%TO.P,J2,1,Pin_1*%
%TO.N,Net-(J2-Pin_1)*%
X105000000Y-105500000D03*
D11*
%TO.P,J2,2,Pin_2*%
%TO.N,GND*%
X105000000Y-108040000D03*
%TD*%
D10*
%TO.P,J3,1,Pin_1*%
%TO.N,Net-(J3-Pin_1)*%
X97200000Y-96900000D03*
D11*
%TO.P,J3,2,Pin_2*%
%TO.N,GND*%
X97200000Y-99440000D03*
%TD*%
D10*
%TO.P,J6,1,Pin_1*%
%TO.N,5V_EN*%
X101300000Y-112200000D03*
%TD*%
%TO.P,J11,1,Pin_1*%
%TO.N,+5V*%
X96600000Y-112200000D03*
%TD*%
%TO.P,J4,1,Pin_1*%
%TO.N,~{CHRGR_EN}*%
X112400000Y-108050000D03*
%TD*%
%TO.P,J10,1,Pin_1*%
%TO.N,VSS*%
X116300000Y-108050000D03*
%TD*%
%TO.P,J7,1,Pin_1*%
%TO.N,~{SNSR_EN}*%
X101000000Y-92500000D03*
%TD*%
D12*
%TO.N,GND*%
X114850000Y-96500000D03*
X107700000Y-110300000D03*
X102300000Y-107100000D03*
X109500000Y-110300000D03*
X99000000Y-110600000D03*
X121900000Y-115100000D03*
%TO.N,Net-(JP1-A)*%
X113300000Y-103150000D03*
X119700000Y-104450000D03*
%TO.N,/SETSD*%
X123000000Y-111750000D03*
X114750000Y-103400000D03*
%TO.N,VSS*%
X95500000Y-107000000D03*
X116000000Y-111000000D03*
X98700000Y-102300000D03*
%TD*%
D13*
%TO.N,Net-(JP1-A)*%
X119700000Y-104450000D02*
X114600000Y-104450000D01*
X114600000Y-104450000D02*
X113300000Y-103150000D01*
%TO.N,/SETSD*%
X123000000Y-111750000D02*
X123000000Y-106901471D01*
X123000000Y-106901471D02*
X119498529Y-103400000D01*
X119498529Y-103400000D02*
X114750000Y-103400000D01*
%TO.N,VSS*%
X95500000Y-107000000D02*
X95500000Y-105500000D01*
X95500000Y-105500000D02*
X98700000Y-102300000D01*
X116000000Y-111000000D02*
X113000000Y-111000000D01*
X113000000Y-111000000D02*
X104300000Y-102300000D01*
X104300000Y-102300000D02*
X98700000Y-102300000D01*
%TD*%
%TA.AperFunction,Conductor*%
%TO.N,GND*%
G36*
X122943039Y-88019685D02*
G01*
X122988794Y-88072489D01*
X123000000Y-88124000D01*
X123000000Y-105752873D01*
X122980315Y-105819912D01*
X122927511Y-105865667D01*
X122858353Y-105875611D01*
X122794797Y-105846586D01*
X122788319Y-105840554D01*
X119986119Y-103038355D01*
X119986117Y-103038352D01*
X119867246Y-102919481D01*
X119867245Y-102919480D01*
X119763489Y-102859577D01*
X119763488Y-102859576D01*
X119730312Y-102840422D01*
X119674410Y-102825443D01*
X119577586Y-102799499D01*
X119419472Y-102799499D01*
X119411876Y-102799499D01*
X119411860Y-102799500D01*
X115332412Y-102799500D01*
X115265373Y-102779815D01*
X115255097Y-102772445D01*
X115252263Y-102770185D01*
X115252262Y-102770184D01*
X115195496Y-102734515D01*
X115099523Y-102674211D01*
X114929254Y-102614631D01*
X114929249Y-102614630D01*
X114750004Y-102594435D01*
X114749996Y-102594435D01*
X114570750Y-102614630D01*
X114570745Y-102614631D01*
X114400476Y-102674211D01*
X114247737Y-102770184D01*
X114209692Y-102808229D01*
X114148369Y-102841714D01*
X114078677Y-102836728D01*
X114022744Y-102794856D01*
X114017018Y-102786519D01*
X113929815Y-102647737D01*
X113802262Y-102520184D01*
X113649523Y-102424211D01*
X113479254Y-102364631D01*
X113479249Y-102364630D01*
X113300004Y-102344435D01*
X113299996Y-102344435D01*
X113120750Y-102364630D01*
X113120745Y-102364631D01*
X112950476Y-102424211D01*
X112797737Y-102520184D01*
X112670184Y-102647737D01*
X112574211Y-102800476D01*
X112514631Y-102970745D01*
X112514630Y-102970750D01*
X112494435Y-103149996D01*
X112494435Y-103150003D01*
X112514630Y-103329249D01*
X112514631Y-103329254D01*
X112574211Y-103499523D01*
X112670184Y-103652262D01*
X112797738Y-103779816D01*
X112950478Y-103875789D01*
X113120745Y-103935368D01*
X113207669Y-103945161D01*
X113272080Y-103972226D01*
X113281464Y-103980699D01*
X114231284Y-104930520D01*
X114231286Y-104930521D01*
X114231290Y-104930524D01*
X114368209Y-105009573D01*
X114368216Y-105009577D01*
X114520943Y-105050501D01*
X114520945Y-105050501D01*
X114686654Y-105050501D01*
X114686670Y-105050500D01*
X119117588Y-105050500D01*
X119184627Y-105070185D01*
X119194903Y-105077555D01*
X119197736Y-105079814D01*
X119197738Y-105079816D01*
X119350478Y-105175789D01*
X119520745Y-105235368D01*
X119520750Y-105235369D01*
X119699996Y-105255565D01*
X119700000Y-105255565D01*
X119700004Y-105255565D01*
X119879249Y-105235369D01*
X119879252Y-105235368D01*
X119879255Y-105235368D01*
X120049522Y-105175789D01*
X120196432Y-105083478D01*
X120263668Y-105064479D01*
X120330504Y-105084847D01*
X120350085Y-105100792D01*
X122363181Y-107113887D01*
X122396666Y-107175210D01*
X122399500Y-107201568D01*
X122399500Y-111167587D01*
X122379815Y-111234626D01*
X122372450Y-111244896D01*
X122370186Y-111247734D01*
X122274211Y-111400476D01*
X122214631Y-111570745D01*
X122214630Y-111570750D01*
X122194435Y-111749996D01*
X122194435Y-111750003D01*
X122214630Y-111929249D01*
X122214631Y-111929254D01*
X122274211Y-112099523D01*
X122370184Y-112252262D01*
X122497738Y-112379816D01*
X122650478Y-112475789D01*
X122820745Y-112535368D01*
X122820749Y-112535369D01*
X122889883Y-112543158D01*
X122954297Y-112570224D01*
X122993852Y-112627818D01*
X123000000Y-112666378D01*
X123000000Y-115876000D01*
X122980315Y-115943039D01*
X122927511Y-115988794D01*
X122876000Y-116000000D01*
X91124000Y-116000000D01*
X91056961Y-115980315D01*
X91011206Y-115927511D01*
X91000000Y-115876000D01*
X91000000Y-111302135D01*
X95249500Y-111302135D01*
X95249500Y-113097870D01*
X95249501Y-113097876D01*
X95255908Y-113157483D01*
X95306202Y-113292328D01*
X95306206Y-113292335D01*
X95392452Y-113407544D01*
X95392455Y-113407547D01*
X95507664Y-113493793D01*
X95507671Y-113493797D01*
X95642517Y-113544091D01*
X95642516Y-113544091D01*
X95649444Y-113544835D01*
X95702127Y-113550500D01*
X97497872Y-113550499D01*
X97557483Y-113544091D01*
X97692331Y-113493796D01*
X97807546Y-113407546D01*
X97893796Y-113292331D01*
X97944091Y-113157483D01*
X97950500Y-113097873D01*
X97950499Y-111302135D01*
X99949500Y-111302135D01*
X99949500Y-113097870D01*
X99949501Y-113097876D01*
X99955908Y-113157483D01*
X100006202Y-113292328D01*
X100006206Y-113292335D01*
X100092452Y-113407544D01*
X100092455Y-113407547D01*
X100207664Y-113493793D01*
X100207671Y-113493797D01*
X100342517Y-113544091D01*
X100342516Y-113544091D01*
X100349444Y-113544835D01*
X100402127Y-113550500D01*
X102197872Y-113550499D01*
X102257483Y-113544091D01*
X102392331Y-113493796D01*
X102507546Y-113407546D01*
X102593796Y-113292331D01*
X102644091Y-113157483D01*
X102650500Y-113097873D01*
X102650499Y-111302128D01*
X102644091Y-111242517D01*
X102635104Y-111218422D01*
X102593797Y-111107671D01*
X102593793Y-111107664D01*
X102507547Y-110992455D01*
X102507544Y-110992452D01*
X102392335Y-110906206D01*
X102392328Y-110906202D01*
X102257482Y-110855908D01*
X102257483Y-110855908D01*
X102197883Y-110849501D01*
X102197881Y-110849500D01*
X102197873Y-110849500D01*
X102197864Y-110849500D01*
X100402129Y-110849500D01*
X100402123Y-110849501D01*
X100342516Y-110855908D01*
X100207671Y-110906202D01*
X100207664Y-110906206D01*
X100092455Y-110992452D01*
X100092452Y-110992455D01*
X100006206Y-111107664D01*
X100006202Y-111107671D01*
X99955908Y-111242517D01*
X99949501Y-111302116D01*
X99949501Y-111302123D01*
X99949500Y-111302135D01*
X97950499Y-111302135D01*
X97950499Y-111302128D01*
X97944091Y-111242517D01*
X97935104Y-111218422D01*
X97893797Y-111107671D01*
X97893793Y-111107664D01*
X97807547Y-110992455D01*
X97807544Y-110992452D01*
X97692335Y-110906206D01*
X97692328Y-110906202D01*
X97557482Y-110855908D01*
X97557483Y-110855908D01*
X97497883Y-110849501D01*
X97497881Y-110849500D01*
X97497873Y-110849500D01*
X97497864Y-110849500D01*
X95702129Y-110849500D01*
X95702123Y-110849501D01*
X95642516Y-110855908D01*
X95507671Y-110906202D01*
X95507664Y-110906206D01*
X95392455Y-110992452D01*
X95392452Y-110992455D01*
X95306206Y-111107664D01*
X95306202Y-111107671D01*
X95255908Y-111242517D01*
X95249501Y-111302116D01*
X95249501Y-111302123D01*
X95249500Y-111302135D01*
X91000000Y-111302135D01*
X91000000Y-106999996D01*
X94694435Y-106999996D01*
X94694435Y-107000003D01*
X94714630Y-107179249D01*
X94714631Y-107179254D01*
X94774211Y-107349523D01*
X94870184Y-107502262D01*
X94997738Y-107629816D01*
X95150478Y-107725789D01*
X95320745Y-107785368D01*
X95320750Y-107785369D01*
X95499996Y-107805565D01*
X95500000Y-107805565D01*
X95500004Y-107805565D01*
X95679249Y-107785369D01*
X95679252Y-107785368D01*
X95679255Y-107785368D01*
X95849522Y-107725789D01*
X96002262Y-107629816D01*
X96129816Y-107502262D01*
X96225789Y-107349522D01*
X96285368Y-107179255D01*
X96286532Y-107168926D01*
X96305565Y-107000003D01*
X96305565Y-106999996D01*
X96285369Y-106820750D01*
X96285368Y-106820745D01*
X96242943Y-106699501D01*
X96225789Y-106650478D01*
X96129816Y-106497738D01*
X96129814Y-106497736D01*
X96129813Y-106497734D01*
X96127550Y-106494896D01*
X96126659Y-106492715D01*
X96126111Y-106491842D01*
X96126264Y-106491745D01*
X96101144Y-106430209D01*
X96100500Y-106417587D01*
X96100500Y-105800096D01*
X96120185Y-105733057D01*
X96136814Y-105712420D01*
X98718535Y-103130698D01*
X98779856Y-103097215D01*
X98792311Y-103095163D01*
X98879255Y-103085368D01*
X99049522Y-103025789D01*
X99202262Y-102929816D01*
X99202267Y-102929810D01*
X99205097Y-102927555D01*
X99207275Y-102926665D01*
X99208158Y-102926111D01*
X99208255Y-102926265D01*
X99269783Y-102901145D01*
X99282412Y-102900500D01*
X103999903Y-102900500D01*
X104066942Y-102920185D01*
X104087584Y-102936819D01*
X105088584Y-103937819D01*
X105122069Y-103999142D01*
X105117085Y-104068834D01*
X105075213Y-104124767D01*
X105009749Y-104149184D01*
X105000903Y-104149500D01*
X104102129Y-104149500D01*
X104102123Y-104149501D01*
X104042516Y-104155908D01*
X103907671Y-104206202D01*
X103907664Y-104206206D01*
X103792455Y-104292452D01*
X103792452Y-104292455D01*
X103706206Y-104407664D01*
X103706202Y-104407671D01*
X103655908Y-104542517D01*
X103649501Y-104602116D01*
X103649500Y-104602135D01*
X103649500Y-106397870D01*
X103649501Y-106397876D01*
X103655908Y-106457483D01*
X103706202Y-106592328D01*
X103706206Y-106592335D01*
X103792452Y-106707544D01*
X103792455Y-106707547D01*
X103907664Y-106793793D01*
X103907671Y-106793797D01*
X103907674Y-106793798D01*
X104039598Y-106843002D01*
X104095531Y-106884873D01*
X104119949Y-106950337D01*
X104105098Y-107018610D01*
X104083947Y-107046865D01*
X103961886Y-107168926D01*
X103826400Y-107362420D01*
X103826399Y-107362422D01*
X103726570Y-107576507D01*
X103726567Y-107576513D01*
X103669364Y-107789999D01*
X103669364Y-107790000D01*
X104566988Y-107790000D01*
X104534075Y-107847007D01*
X104500000Y-107974174D01*
X104500000Y-108105826D01*
X104534075Y-108232993D01*
X104566988Y-108290000D01*
X103669364Y-108290000D01*
X103726567Y-108503486D01*
X103726570Y-108503492D01*
X103826399Y-108717578D01*
X103961894Y-108911082D01*
X104128917Y-109078105D01*
X104322421Y-109213600D01*
X104536507Y-109313429D01*
X104536516Y-109313433D01*
X104750000Y-109370634D01*
X104750000Y-108473012D01*
X104807007Y-108505925D01*
X104934174Y-108540000D01*
X105065826Y-108540000D01*
X105192993Y-108505925D01*
X105250000Y-108473012D01*
X105250000Y-109370633D01*
X105463483Y-109313433D01*
X105463492Y-109313429D01*
X105677578Y-109213600D01*
X105871082Y-109078105D01*
X106038105Y-108911082D01*
X106173600Y-108717578D01*
X106273429Y-108503492D01*
X106273432Y-108503486D01*
X106330636Y-108290000D01*
X105433012Y-108290000D01*
X105465925Y-108232993D01*
X105500000Y-108105826D01*
X105500000Y-107974174D01*
X105465925Y-107847007D01*
X105433012Y-107790000D01*
X106330636Y-107790000D01*
X106330635Y-107789999D01*
X106273432Y-107576513D01*
X106273429Y-107576507D01*
X106173600Y-107362422D01*
X106173599Y-107362420D01*
X106038113Y-107168926D01*
X106038108Y-107168920D01*
X105916053Y-107046865D01*
X105882568Y-106985542D01*
X105887552Y-106915850D01*
X105929424Y-106859917D01*
X105960400Y-106843002D01*
X106092331Y-106793796D01*
X106207546Y-106707546D01*
X106293796Y-106592331D01*
X106344091Y-106457483D01*
X106350500Y-106397873D01*
X106350499Y-105499095D01*
X106370183Y-105432057D01*
X106422987Y-105386302D01*
X106492146Y-105376358D01*
X106555702Y-105405383D01*
X106562180Y-105411415D01*
X112515139Y-111364374D01*
X112515149Y-111364385D01*
X112519479Y-111368715D01*
X112519480Y-111368716D01*
X112631284Y-111480520D01*
X112718095Y-111530639D01*
X112718097Y-111530641D01*
X112756151Y-111552611D01*
X112768215Y-111559577D01*
X112920943Y-111600501D01*
X112920946Y-111600501D01*
X113086653Y-111600501D01*
X113086669Y-111600500D01*
X115417588Y-111600500D01*
X115484627Y-111620185D01*
X115494903Y-111627555D01*
X115497736Y-111629814D01*
X115497738Y-111629816D01*
X115650478Y-111725789D01*
X115719678Y-111750003D01*
X115820745Y-111785368D01*
X115820750Y-111785369D01*
X115999996Y-111805565D01*
X116000000Y-111805565D01*
X116000004Y-111805565D01*
X116179249Y-111785369D01*
X116179252Y-111785368D01*
X116179255Y-111785368D01*
X116349522Y-111725789D01*
X116502262Y-111629816D01*
X116629816Y-111502262D01*
X116725789Y-111349522D01*
X116785368Y-111179255D01*
X116793434Y-111107669D01*
X116805565Y-111000003D01*
X116805565Y-110999996D01*
X116785369Y-110820750D01*
X116785368Y-110820745D01*
X116725788Y-110650476D01*
X116629815Y-110497737D01*
X116502262Y-110370184D01*
X116349523Y-110274211D01*
X116179254Y-110214631D01*
X116179249Y-110214630D01*
X116000004Y-110194435D01*
X115999996Y-110194435D01*
X115820750Y-110214630D01*
X115820745Y-110214631D01*
X115650476Y-110274211D01*
X115497736Y-110370185D01*
X115494903Y-110372445D01*
X115492724Y-110373334D01*
X115491842Y-110373889D01*
X115491744Y-110373734D01*
X115430217Y-110398855D01*
X115417588Y-110399500D01*
X113300097Y-110399500D01*
X113233058Y-110379815D01*
X113212416Y-110363181D01*
X112461415Y-109612180D01*
X112427930Y-109550857D01*
X112432914Y-109481165D01*
X112474786Y-109425232D01*
X112540250Y-109400815D01*
X112549096Y-109400499D01*
X113297871Y-109400499D01*
X113297872Y-109400499D01*
X113357483Y-109394091D01*
X113492331Y-109343796D01*
X113607546Y-109257546D01*
X113693796Y-109142331D01*
X113744091Y-109007483D01*
X113750500Y-108947873D01*
X113750499Y-107152135D01*
X114949500Y-107152135D01*
X114949500Y-108947870D01*
X114949501Y-108947876D01*
X114955908Y-109007483D01*
X115006202Y-109142328D01*
X115006206Y-109142335D01*
X115092452Y-109257544D01*
X115092455Y-109257547D01*
X115207664Y-109343793D01*
X115207671Y-109343797D01*
X115342517Y-109394091D01*
X115342516Y-109394091D01*
X115349444Y-109394835D01*
X115402127Y-109400500D01*
X117197872Y-109400499D01*
X117257483Y-109394091D01*
X117392331Y-109343796D01*
X117507546Y-109257546D01*
X117593796Y-109142331D01*
X117644091Y-109007483D01*
X117650500Y-108947873D01*
X117650499Y-107152128D01*
X117644091Y-107092517D01*
X117616525Y-107018610D01*
X117593797Y-106957671D01*
X117593793Y-106957664D01*
X117507547Y-106842455D01*
X117507544Y-106842452D01*
X117392335Y-106756206D01*
X117392328Y-106756202D01*
X117257482Y-106705908D01*
X117257483Y-106705908D01*
X117197883Y-106699501D01*
X117197881Y-106699500D01*
X117197873Y-106699500D01*
X117197864Y-106699500D01*
X115402129Y-106699500D01*
X115402123Y-106699501D01*
X115342516Y-106705908D01*
X115207671Y-106756202D01*
X115207664Y-106756206D01*
X115092455Y-106842452D01*
X115092452Y-106842455D01*
X115006206Y-106957664D01*
X115006202Y-106957671D01*
X114955908Y-107092517D01*
X114949501Y-107152116D01*
X114949501Y-107152123D01*
X114949500Y-107152135D01*
X113750499Y-107152135D01*
X113750499Y-107152128D01*
X113744091Y-107092517D01*
X113716525Y-107018610D01*
X113693797Y-106957671D01*
X113693793Y-106957664D01*
X113607547Y-106842455D01*
X113607544Y-106842452D01*
X113492335Y-106756206D01*
X113492328Y-106756202D01*
X113357482Y-106705908D01*
X113357483Y-106705908D01*
X113297883Y-106699501D01*
X113297881Y-106699500D01*
X113297873Y-106699500D01*
X113297864Y-106699500D01*
X111502129Y-106699500D01*
X111502123Y-106699501D01*
X111442516Y-106705908D01*
X111307671Y-106756202D01*
X111307664Y-106756206D01*
X111192455Y-106842452D01*
X111192452Y-106842455D01*
X111106206Y-106957664D01*
X111106202Y-106957671D01*
X111055908Y-107092517D01*
X111049501Y-107152116D01*
X111049501Y-107152123D01*
X111049500Y-107152135D01*
X111049500Y-107900903D01*
X111029815Y-107967942D01*
X110977011Y-108013697D01*
X110907853Y-108023641D01*
X110844297Y-107994616D01*
X110837819Y-107988584D01*
X104787590Y-101938355D01*
X104787588Y-101938352D01*
X104668717Y-101819481D01*
X104668709Y-101819475D01*
X104566936Y-101760717D01*
X104566934Y-101760716D01*
X104531790Y-101740425D01*
X104531789Y-101740424D01*
X104519263Y-101737067D01*
X104379057Y-101699499D01*
X104220943Y-101699499D01*
X104213347Y-101699499D01*
X104213331Y-101699500D01*
X102724500Y-101699500D01*
X102657461Y-101679815D01*
X102611706Y-101627011D01*
X102600500Y-101575500D01*
X102600499Y-100002129D01*
X102600498Y-100002123D01*
X102600497Y-100002116D01*
X102594091Y-99942517D01*
X102593152Y-99940000D01*
X102543797Y-99807671D01*
X102543793Y-99807664D01*
X102457547Y-99692455D01*
X102457544Y-99692452D01*
X102342335Y-99606206D01*
X102342328Y-99606202D01*
X102207482Y-99555908D01*
X102207483Y-99555908D01*
X102147883Y-99549501D01*
X102147881Y-99549500D01*
X102147873Y-99549500D01*
X102147864Y-99549500D01*
X100352129Y-99549500D01*
X100352123Y-99549501D01*
X100292516Y-99555908D01*
X100157671Y-99606202D01*
X100157664Y-99606206D01*
X100042455Y-99692452D01*
X100042452Y-99692455D01*
X99956206Y-99807664D01*
X99956202Y-99807671D01*
X99905908Y-99942517D01*
X99899501Y-100002116D01*
X99899501Y-100002123D01*
X99899500Y-100002135D01*
X99899501Y-101575500D01*
X99879816Y-101642539D01*
X99827013Y-101688294D01*
X99775501Y-101699500D01*
X99282412Y-101699500D01*
X99215373Y-101679815D01*
X99205097Y-101672445D01*
X99202263Y-101670185D01*
X99202262Y-101670184D01*
X99133553Y-101627011D01*
X99049523Y-101574211D01*
X98879254Y-101514631D01*
X98879249Y-101514630D01*
X98700004Y-101494435D01*
X98699996Y-101494435D01*
X98520750Y-101514630D01*
X98520745Y-101514631D01*
X98350476Y-101574211D01*
X98197737Y-101670184D01*
X98070184Y-101797737D01*
X97974210Y-101950478D01*
X97914630Y-102120750D01*
X97904837Y-102207668D01*
X97877770Y-102272082D01*
X97869298Y-102281465D01*
X95131286Y-105019478D01*
X95019481Y-105131282D01*
X95019480Y-105131284D01*
X94975093Y-105208165D01*
X94940423Y-105268215D01*
X94899499Y-105420943D01*
X94899499Y-105420945D01*
X94899499Y-105589046D01*
X94899500Y-105589059D01*
X94899500Y-106417587D01*
X94879815Y-106484626D01*
X94872450Y-106494896D01*
X94870186Y-106497734D01*
X94774211Y-106650476D01*
X94714631Y-106820745D01*
X94714630Y-106820750D01*
X94694435Y-106999996D01*
X91000000Y-106999996D01*
X91000000Y-96002135D01*
X95849500Y-96002135D01*
X95849500Y-97797870D01*
X95849501Y-97797876D01*
X95855908Y-97857483D01*
X95906202Y-97992328D01*
X95906206Y-97992335D01*
X95992452Y-98107544D01*
X95992455Y-98107547D01*
X96107664Y-98193793D01*
X96107671Y-98193797D01*
X96107674Y-98193798D01*
X96239598Y-98243002D01*
X96295531Y-98284873D01*
X96319949Y-98350337D01*
X96305098Y-98418610D01*
X96283947Y-98446865D01*
X96161886Y-98568926D01*
X96026400Y-98762420D01*
X96026399Y-98762422D01*
X95926570Y-98976507D01*
X95926567Y-98976513D01*
X95869364Y-99189999D01*
X95869364Y-99190000D01*
X96766988Y-99190000D01*
X96734075Y-99247007D01*
X96700000Y-99374174D01*
X96700000Y-99505826D01*
X96734075Y-99632993D01*
X96766988Y-99690000D01*
X95869364Y-99690000D01*
X95926567Y-99903486D01*
X95926570Y-99903492D01*
X96026399Y-100117578D01*
X96161894Y-100311082D01*
X96328917Y-100478105D01*
X96522421Y-100613600D01*
X96736507Y-100713429D01*
X96736516Y-100713433D01*
X96950000Y-100770634D01*
X96950000Y-99873012D01*
X97007007Y-99905925D01*
X97134174Y-99940000D01*
X97265826Y-99940000D01*
X97392993Y-99905925D01*
X97450000Y-99873012D01*
X97450000Y-100770633D01*
X97663483Y-100713433D01*
X97663492Y-100713429D01*
X97877578Y-100613600D01*
X98071082Y-100478105D01*
X98238105Y-100311082D01*
X98373600Y-100117578D01*
X98473429Y-99903492D01*
X98473432Y-99903486D01*
X98530636Y-99690000D01*
X97633012Y-99690000D01*
X97665925Y-99632993D01*
X97700000Y-99505826D01*
X97700000Y-99374174D01*
X97665925Y-99247007D01*
X97633012Y-99190000D01*
X98530636Y-99190000D01*
X98530635Y-99189999D01*
X98473432Y-98976513D01*
X98473429Y-98976507D01*
X98373600Y-98762422D01*
X98373599Y-98762420D01*
X98238113Y-98568926D01*
X98238108Y-98568920D01*
X98116053Y-98446865D01*
X98082568Y-98385542D01*
X98087552Y-98315850D01*
X98129424Y-98259917D01*
X98160400Y-98243002D01*
X98292331Y-98193796D01*
X98407546Y-98107546D01*
X98493796Y-97992331D01*
X98544091Y-97857483D01*
X98550500Y-97797873D01*
X98550499Y-96852135D01*
X105549500Y-96852135D01*
X105549500Y-98647870D01*
X105549501Y-98647876D01*
X105555908Y-98707483D01*
X105606202Y-98842328D01*
X105606206Y-98842335D01*
X105692452Y-98957544D01*
X105692455Y-98957547D01*
X105807664Y-99043793D01*
X105807671Y-99043797D01*
X105942517Y-99094091D01*
X105942516Y-99094091D01*
X105949444Y-99094835D01*
X106002127Y-99100500D01*
X107797872Y-99100499D01*
X107857483Y-99094091D01*
X107992331Y-99043796D01*
X108107546Y-98957546D01*
X108193796Y-98842331D01*
X108244091Y-98707483D01*
X108250500Y-98647873D01*
X108250499Y-96852128D01*
X108244091Y-96792517D01*
X108193796Y-96657669D01*
X108193795Y-96657668D01*
X108193793Y-96657664D01*
X108107547Y-96542455D01*
X108107544Y-96542452D01*
X107992335Y-96456206D01*
X107992328Y-96456202D01*
X107857482Y-96405908D01*
X107857483Y-96405908D01*
X107797883Y-96399501D01*
X107797881Y-96399500D01*
X107797873Y-96399500D01*
X107797864Y-96399500D01*
X106002129Y-96399500D01*
X106002123Y-96399501D01*
X105942516Y-96405908D01*
X105807671Y-96456202D01*
X105807664Y-96456206D01*
X105692455Y-96542452D01*
X105692452Y-96542455D01*
X105606206Y-96657664D01*
X105606202Y-96657671D01*
X105555908Y-96792517D01*
X105549501Y-96852116D01*
X105549501Y-96852123D01*
X105549500Y-96852135D01*
X98550499Y-96852135D01*
X98550499Y-96002128D01*
X98544091Y-95942517D01*
X98493796Y-95807669D01*
X98493795Y-95807668D01*
X98493793Y-95807664D01*
X98407547Y-95692455D01*
X98407544Y-95692452D01*
X98292335Y-95606206D01*
X98292328Y-95606202D01*
X98157482Y-95555908D01*
X98157483Y-95555908D01*
X98097883Y-95549501D01*
X98097881Y-95549500D01*
X98097873Y-95549500D01*
X98097864Y-95549500D01*
X96302129Y-95549500D01*
X96302123Y-95549501D01*
X96242516Y-95555908D01*
X96107671Y-95606202D01*
X96107664Y-95606206D01*
X95992455Y-95692452D01*
X95992452Y-95692455D01*
X95906206Y-95807664D01*
X95906202Y-95807671D01*
X95855908Y-95942517D01*
X95849501Y-96002116D01*
X95849501Y-96002123D01*
X95849500Y-96002135D01*
X91000000Y-96002135D01*
X91000000Y-91602135D01*
X99649500Y-91602135D01*
X99649500Y-93397870D01*
X99649501Y-93397876D01*
X99655908Y-93457483D01*
X99706202Y-93592328D01*
X99706206Y-93592335D01*
X99792452Y-93707544D01*
X99792455Y-93707547D01*
X99907664Y-93793793D01*
X99907671Y-93793797D01*
X100042517Y-93844091D01*
X100042516Y-93844091D01*
X100049444Y-93844835D01*
X100102127Y-93850500D01*
X101897872Y-93850499D01*
X101957483Y-93844091D01*
X102092331Y-93793796D01*
X102207546Y-93707546D01*
X102293796Y-93592331D01*
X102344091Y-93457483D01*
X102350500Y-93397873D01*
X102350499Y-91602155D01*
X103850000Y-91602155D01*
X103850000Y-92250000D01*
X104766988Y-92250000D01*
X104734075Y-92307007D01*
X104700000Y-92434174D01*
X104700000Y-92565826D01*
X104734075Y-92692993D01*
X104766988Y-92750000D01*
X103850000Y-92750000D01*
X103850000Y-93397844D01*
X103856401Y-93457372D01*
X103856403Y-93457379D01*
X103906645Y-93592086D01*
X103906649Y-93592093D01*
X103992809Y-93707187D01*
X103992812Y-93707190D01*
X104107906Y-93793350D01*
X104107913Y-93793354D01*
X104242620Y-93843596D01*
X104242627Y-93843598D01*
X104302155Y-93849999D01*
X104302172Y-93850000D01*
X104950000Y-93850000D01*
X104950000Y-92933012D01*
X105007007Y-92965925D01*
X105134174Y-93000000D01*
X105265826Y-93000000D01*
X105392993Y-92965925D01*
X105450000Y-92933012D01*
X105450000Y-93850000D01*
X106097828Y-93850000D01*
X106097844Y-93849999D01*
X106157372Y-93843598D01*
X106157379Y-93843596D01*
X106292086Y-93793354D01*
X106292093Y-93793350D01*
X106316607Y-93774999D01*
X109144341Y-93774999D01*
X109144341Y-93775000D01*
X109164936Y-94010403D01*
X109164938Y-94010413D01*
X109226094Y-94238655D01*
X109226096Y-94238659D01*
X109226097Y-94238663D01*
X109325965Y-94452830D01*
X109325967Y-94452834D01*
X109434281Y-94607521D01*
X109461505Y-94646401D01*
X109628599Y-94813495D01*
X109705135Y-94867086D01*
X109822165Y-94949032D01*
X109822167Y-94949033D01*
X109822170Y-94949035D01*
X110036337Y-95048903D01*
X110264592Y-95110063D01*
X110435319Y-95125000D01*
X110499999Y-95130659D01*
X110500000Y-95130659D01*
X110500001Y-95130659D01*
X110564681Y-95125000D01*
X110735408Y-95110063D01*
X110963663Y-95048903D01*
X111177830Y-94949035D01*
X111371401Y-94813495D01*
X111493717Y-94691178D01*
X111555036Y-94657696D01*
X111624728Y-94662680D01*
X111680662Y-94704551D01*
X111697577Y-94735528D01*
X111746646Y-94867088D01*
X111746649Y-94867093D01*
X111832809Y-94982187D01*
X111832812Y-94982190D01*
X111947906Y-95068350D01*
X111947913Y-95068354D01*
X112082620Y-95118596D01*
X112082627Y-95118598D01*
X112142155Y-95124999D01*
X112142172Y-95125000D01*
X112790000Y-95125000D01*
X112790000Y-94208012D01*
X112847007Y-94240925D01*
X112974174Y-94275000D01*
X113105826Y-94275000D01*
X113232993Y-94240925D01*
X113290000Y-94208012D01*
X113290000Y-95125000D01*
X113937828Y-95125000D01*
X113937844Y-95124999D01*
X113997372Y-95118598D01*
X113997379Y-95118596D01*
X114132086Y-95068354D01*
X114132093Y-95068350D01*
X114247187Y-94982190D01*
X114247190Y-94982187D01*
X114333350Y-94867093D01*
X114333354Y-94867086D01*
X114383596Y-94732379D01*
X114383598Y-94732372D01*
X114389999Y-94672844D01*
X114390000Y-94672827D01*
X114390000Y-94025000D01*
X113473012Y-94025000D01*
X113505925Y-93967993D01*
X113540000Y-93840826D01*
X113540000Y-93709174D01*
X113505925Y-93582007D01*
X113473012Y-93525000D01*
X114390000Y-93525000D01*
X114390000Y-92877172D01*
X114389999Y-92877155D01*
X114383598Y-92817627D01*
X114383596Y-92817620D01*
X114333354Y-92682913D01*
X114333350Y-92682906D01*
X114247190Y-92567812D01*
X114247187Y-92567809D01*
X114132093Y-92481649D01*
X114132086Y-92481645D01*
X113997379Y-92431403D01*
X113997372Y-92431401D01*
X113937844Y-92425000D01*
X113290000Y-92425000D01*
X113290000Y-93341988D01*
X113232993Y-93309075D01*
X113105826Y-93275000D01*
X112974174Y-93275000D01*
X112847007Y-93309075D01*
X112790000Y-93341988D01*
X112790000Y-92425000D01*
X112142155Y-92425000D01*
X112082627Y-92431401D01*
X112082620Y-92431403D01*
X111947913Y-92481645D01*
X111947906Y-92481649D01*
X111832812Y-92567809D01*
X111832809Y-92567812D01*
X111746649Y-92682906D01*
X111746645Y-92682913D01*
X111697578Y-92814470D01*
X111655707Y-92870404D01*
X111590242Y-92894821D01*
X111521969Y-92879969D01*
X111493715Y-92858819D01*
X111441903Y-92807007D01*
X111371401Y-92736505D01*
X111371397Y-92736502D01*
X111371396Y-92736501D01*
X111177834Y-92600967D01*
X111177830Y-92600965D01*
X111102474Y-92565826D01*
X110963663Y-92501097D01*
X110963659Y-92501096D01*
X110963655Y-92501094D01*
X110735413Y-92439938D01*
X110735403Y-92439936D01*
X110500001Y-92419341D01*
X110499999Y-92419341D01*
X110264596Y-92439936D01*
X110264586Y-92439938D01*
X110036344Y-92501094D01*
X110036335Y-92501098D01*
X109822171Y-92600964D01*
X109822169Y-92600965D01*
X109628597Y-92736505D01*
X109461505Y-92903597D01*
X109325965Y-93097169D01*
X109325964Y-93097171D01*
X109226098Y-93311335D01*
X109226094Y-93311344D01*
X109164938Y-93539586D01*
X109164936Y-93539596D01*
X109144341Y-93774999D01*
X106316607Y-93774999D01*
X106407187Y-93707190D01*
X106407190Y-93707187D01*
X106493350Y-93592093D01*
X106493354Y-93592086D01*
X106543596Y-93457379D01*
X106543598Y-93457372D01*
X106549999Y-93397844D01*
X106550000Y-93397827D01*
X106550000Y-92750000D01*
X105633012Y-92750000D01*
X105665925Y-92692993D01*
X105700000Y-92565826D01*
X105700000Y-92434174D01*
X105665925Y-92307007D01*
X105633012Y-92250000D01*
X106550000Y-92250000D01*
X106550000Y-91602172D01*
X106549999Y-91602155D01*
X106543598Y-91542627D01*
X106543596Y-91542620D01*
X106493354Y-91407913D01*
X106493350Y-91407906D01*
X106407190Y-91292812D01*
X106407187Y-91292809D01*
X106292093Y-91206649D01*
X106292086Y-91206645D01*
X106157379Y-91156403D01*
X106157372Y-91156401D01*
X106097844Y-91150000D01*
X105450000Y-91150000D01*
X105450000Y-92066988D01*
X105392993Y-92034075D01*
X105265826Y-92000000D01*
X105134174Y-92000000D01*
X105007007Y-92034075D01*
X104950000Y-92066988D01*
X104950000Y-91150000D01*
X104302155Y-91150000D01*
X104242627Y-91156401D01*
X104242620Y-91156403D01*
X104107913Y-91206645D01*
X104107906Y-91206649D01*
X103992812Y-91292809D01*
X103992809Y-91292812D01*
X103906649Y-91407906D01*
X103906645Y-91407913D01*
X103856403Y-91542620D01*
X103856401Y-91542627D01*
X103850000Y-91602155D01*
X102350499Y-91602155D01*
X102350499Y-91602128D01*
X102344091Y-91542517D01*
X102293884Y-91407906D01*
X102293797Y-91407671D01*
X102293793Y-91407664D01*
X102207547Y-91292455D01*
X102207544Y-91292452D01*
X102092335Y-91206206D01*
X102092328Y-91206202D01*
X101957482Y-91155908D01*
X101957483Y-91155908D01*
X101897883Y-91149501D01*
X101897881Y-91149500D01*
X101897873Y-91149500D01*
X101897864Y-91149500D01*
X100102129Y-91149500D01*
X100102123Y-91149501D01*
X100042516Y-91155908D01*
X99907671Y-91206202D01*
X99907664Y-91206206D01*
X99792455Y-91292452D01*
X99792452Y-91292455D01*
X99706206Y-91407664D01*
X99706202Y-91407671D01*
X99655908Y-91542517D01*
X99649501Y-91602116D01*
X99649501Y-91602123D01*
X99649500Y-91602135D01*
X91000000Y-91602135D01*
X91000000Y-88124000D01*
X91019685Y-88056961D01*
X91072489Y-88011206D01*
X91124000Y-88000000D01*
X122876000Y-88000000D01*
X122943039Y-88019685D01*
G37*
%TD.AperFunction*%
%TD*%
M02*
