%TF.GenerationSoftware,KiCad,Pcbnew,8.0.4*%
%TF.CreationDate,2024-09-13T17:57:47-07:00*%
%TF.ProjectId,rf-frontend-test,72662d66-726f-46e7-9465-6e642d746573,rev?*%
%TF.SameCoordinates,Original*%
%TF.FileFunction,Soldermask,Bot*%
%TF.FilePolarity,Negative*%
%FSLAX46Y46*%
G04 Gerber Fmt 4.6, Leading zero omitted, Abs format (unit mm)*
G04 Created by KiCad (PCBNEW 8.0.4) date 2024-09-13 17:57:47*
%MOMM*%
%LPD*%
G01*
G04 APERTURE LIST*
G04 APERTURE END LIST*
G36*
X113130000Y-71295000D02*
G01*
X111430000Y-71295000D01*
X111430000Y-69595000D01*
X113130000Y-69595000D01*
X113130000Y-71295000D01*
G37*
G36*
X124370000Y-71290000D02*
G01*
X122670000Y-71290000D01*
X122670000Y-69590000D01*
X124370000Y-69590000D01*
X124370000Y-71290000D01*
G37*
G36*
X116162664Y-69631602D02*
G01*
X116325000Y-69703878D01*
X116468761Y-69808327D01*
X116587664Y-69940383D01*
X116676514Y-70094274D01*
X116731425Y-70263275D01*
X116750000Y-70440000D01*
X116731425Y-70616725D01*
X116676514Y-70785726D01*
X116587664Y-70939617D01*
X116468761Y-71071673D01*
X116325000Y-71176122D01*
X116162664Y-71248398D01*
X115988849Y-71285344D01*
X115811151Y-71285344D01*
X115637336Y-71248398D01*
X115475000Y-71176122D01*
X115331239Y-71071673D01*
X115212336Y-70939617D01*
X115123486Y-70785726D01*
X115068575Y-70616725D01*
X115050000Y-70440000D01*
X115068575Y-70263275D01*
X115123486Y-70094274D01*
X115212336Y-69940383D01*
X115331239Y-69808327D01*
X115475000Y-69703878D01*
X115637336Y-69631602D01*
X115811151Y-69594656D01*
X115988849Y-69594656D01*
X116162664Y-69631602D01*
G37*
G36*
X118702664Y-69631602D02*
G01*
X118865000Y-69703878D01*
X119008761Y-69808327D01*
X119127664Y-69940383D01*
X119216514Y-70094274D01*
X119271425Y-70263275D01*
X119290000Y-70440000D01*
X119271425Y-70616725D01*
X119216514Y-70785726D01*
X119127664Y-70939617D01*
X119008761Y-71071673D01*
X118865000Y-71176122D01*
X118702664Y-71248398D01*
X118528849Y-71285344D01*
X118351151Y-71285344D01*
X118177336Y-71248398D01*
X118015000Y-71176122D01*
X117871239Y-71071673D01*
X117752336Y-70939617D01*
X117663486Y-70785726D01*
X117608575Y-70616725D01*
X117590000Y-70440000D01*
X117608575Y-70263275D01*
X117663486Y-70094274D01*
X117752336Y-69940383D01*
X117871239Y-69808327D01*
X118015000Y-69703878D01*
X118177336Y-69631602D01*
X118351151Y-69594656D01*
X118528849Y-69594656D01*
X118702664Y-69631602D01*
G37*
G36*
X121242664Y-69631602D02*
G01*
X121405000Y-69703878D01*
X121548761Y-69808327D01*
X121667664Y-69940383D01*
X121756514Y-70094274D01*
X121811425Y-70263275D01*
X121830000Y-70440000D01*
X121811425Y-70616725D01*
X121756514Y-70785726D01*
X121667664Y-70939617D01*
X121548761Y-71071673D01*
X121405000Y-71176122D01*
X121242664Y-71248398D01*
X121068849Y-71285344D01*
X120891151Y-71285344D01*
X120717336Y-71248398D01*
X120555000Y-71176122D01*
X120411239Y-71071673D01*
X120292336Y-70939617D01*
X120203486Y-70785726D01*
X120148575Y-70616725D01*
X120130000Y-70440000D01*
X120148575Y-70263275D01*
X120203486Y-70094274D01*
X120292336Y-69940383D01*
X120411239Y-69808327D01*
X120555000Y-69703878D01*
X120717336Y-69631602D01*
X120891151Y-69594656D01*
X121068849Y-69594656D01*
X121242664Y-69631602D01*
G37*
G36*
X112542664Y-67096602D02*
G01*
X112705000Y-67168878D01*
X112848761Y-67273327D01*
X112967664Y-67405383D01*
X113056514Y-67559274D01*
X113111425Y-67728275D01*
X113130000Y-67905000D01*
X113111425Y-68081725D01*
X113056514Y-68250726D01*
X112967664Y-68404617D01*
X112848761Y-68536673D01*
X112705000Y-68641122D01*
X112542664Y-68713398D01*
X112368849Y-68750344D01*
X112191151Y-68750344D01*
X112017336Y-68713398D01*
X111855000Y-68641122D01*
X111711239Y-68536673D01*
X111592336Y-68404617D01*
X111503486Y-68250726D01*
X111448575Y-68081725D01*
X111430000Y-67905000D01*
X111448575Y-67728275D01*
X111503486Y-67559274D01*
X111592336Y-67405383D01*
X111711239Y-67273327D01*
X111855000Y-67168878D01*
X112017336Y-67096602D01*
X112191151Y-67059656D01*
X112368849Y-67059656D01*
X112542664Y-67096602D01*
G37*
G36*
X113140000Y-65115000D02*
G01*
X111440000Y-65115000D01*
X111440000Y-63415000D01*
X113140000Y-63415000D01*
X113140000Y-65115000D01*
G37*
G36*
X112552664Y-60916602D02*
G01*
X112715000Y-60988878D01*
X112858761Y-61093327D01*
X112977664Y-61225383D01*
X113066514Y-61379274D01*
X113121425Y-61548275D01*
X113140000Y-61725000D01*
X113121425Y-61901725D01*
X113066514Y-62070726D01*
X112977664Y-62224617D01*
X112858761Y-62356673D01*
X112715000Y-62461122D01*
X112552664Y-62533398D01*
X112378849Y-62570344D01*
X112201151Y-62570344D01*
X112027336Y-62533398D01*
X111865000Y-62461122D01*
X111721239Y-62356673D01*
X111602336Y-62224617D01*
X111513486Y-62070726D01*
X111458575Y-61901725D01*
X111440000Y-61725000D01*
X111458575Y-61548275D01*
X111513486Y-61379274D01*
X111602336Y-61225383D01*
X111721239Y-61093327D01*
X111865000Y-60988878D01*
X112027336Y-60916602D01*
X112201151Y-60879656D01*
X112378849Y-60879656D01*
X112552664Y-60916602D01*
G37*
M02*
